<svg xmlns:xlink="http://www.w3.org/1999/xlink" xmlns="http://www.w3.org/2000/svg" class="icon icon_lg" height="82" width="82" ><defs><symbol viewBox="0 0 82 82" id="security-data-list__icon-3"><path d="M57.3724 9.16167L62.5158 9.53379C67.6172 9.9029 71.6953 13.9211 72.1394 19.0167L72.5866 24.1543C72.7756 26.339 73.6519 28.4066 75.0862 30.0631L78.4622 33.9643C81.8081 37.8325 81.8501 43.5583 78.5612 47.4745L75.2453 51.4237C73.8349 53.1012 72.9917 55.1839 72.8356 57.3685L72.4635 62.5121C72.0944 67.6137 68.0763 71.692 62.981 72.1361L57.8406 72.5862C55.656 72.7753 53.5884 73.6516 51.932 75.086L48.0309 78.4621C44.1629 81.8081 38.4373 81.8501 34.5212 78.5611L30.5722 75.2451C28.8947 73.8346 26.8122 72.9914 24.6276 72.8353L19.4842 72.4632C14.3828 72.0941 10.3047 68.0759 9.86056 62.9803L9.41344 57.8427C9.22439 55.658 8.34815 53.5904 6.91376 51.9339L3.53784 48.0327C0.191937 44.1645 0.149926 38.4387 3.43882 34.5225L6.75472 30.5733C8.1651 28.8958 9.00833 26.8131 9.16437 24.6284L9.53647 19.4849C9.90557 14.3833 13.9237 10.305 19.019 9.86089L24.1564 9.41375C26.341 9.22469 28.4086 8.34842 30.065 6.91398L33.9661 3.53794C37.8341 0.191907 43.5597 0.149894 47.4758 3.43891L51.4248 6.75493C53.1053 8.16237 55.1849 9.00563 57.3724 9.16167Z" stroke="#2D5536" stroke-width="0.5" stroke-miterlimit="10"></path><path d="M56.6286 10.6082L61.5409 10.9623C66.4112 11.3134 70.3033 15.1516 70.7264 20.0131L71.1555 24.9196C71.3386 27.0052 72.1728 28.9768 73.5412 30.5613L76.7641 34.2855C79.9569 37.9766 79.9989 43.4443 76.8601 47.1834L73.6942 50.9556C72.3499 52.5581 71.5426 54.5447 71.3926 56.6304L71.0385 61.5429C70.6874 66.4134 66.8494 70.3056 61.988 70.7287L57.0817 71.1578C54.9961 71.3409 53.0246 72.1751 51.4402 73.5436L47.7162 76.7666C44.0252 79.9595 38.5577 80.0016 34.8187 76.8626L31.0467 73.6966C29.4442 72.3522 27.4577 71.545 25.3721 71.3949L20.4598 71.0408C15.5895 70.6897 11.6974 66.8515 11.2743 61.99L10.8452 57.0835C10.6621 54.9978 9.8279 53.0262 8.45953 51.4418L5.23665 47.7176C2.04379 44.0265 2.00178 38.5588 5.14063 34.8196L8.30649 31.0475C9.65085 29.445 10.4581 27.4584 10.6081 25.3727L10.9622 20.4602C11.3133 15.5897 15.1513 11.6975 20.0127 11.2744L24.919 10.8452C27.0046 10.6622 28.9761 9.82792 30.5605 8.45949L34.2845 5.2365C37.9755 2.04352 43.443 2.0015 47.182 5.14047L50.9541 8.30645C52.5565 9.65086 54.543 10.4551 56.6286 10.6082Z" stroke="#2D5536" stroke-width="0.5" stroke-miterlimit="10"></path><path d="M55.8661 12.0906L60.5384 12.4297C65.1687 12.7658 68.8717 16.412 69.2768 21.0394L69.6849 25.7058C69.8589 27.6894 70.6512 29.565 71.9535 31.0715L75.0173 34.6126C78.0542 38.1237 78.0932 43.3243 75.1074 46.8804L72.0975 50.4665C70.8192 51.9909 70.051 53.8785 69.91 55.8651L69.5709 60.5376C69.2348 65.168 65.5888 68.8711 60.9615 69.2763L56.2953 69.6844C54.3117 69.8584 52.4362 70.6507 50.9298 71.9531L47.3888 75.017C43.8779 78.054 38.6775 78.093 35.1215 75.1071L31.5355 72.0971C30.0111 70.8187 28.1236 70.0505 26.1371 69.9095L21.4648 69.5704C16.8346 69.2343 13.1316 65.5881 12.7264 60.9607L12.3183 56.2943C12.1443 54.3107 11.3521 52.4351 10.0497 50.9286L6.98589 47.3875C3.94906 43.8764 3.91005 38.6758 6.89586 35.1197L9.90568 31.5336C11.184 30.0092 11.9522 28.1216 12.0933 26.135L12.4324 21.4625C12.7685 16.8321 16.4144 13.1289 21.0417 12.7238L25.708 12.3157C27.6915 12.1416 29.567 11.3494 31.0734 10.047L34.6144 6.98304C38.1253 3.94611 43.3257 3.9071 46.8817 6.89302L50.4677 9.90294C51.9921 11.1813 53.8796 11.9466 55.8661 12.0906Z" stroke="#2D5536" stroke-width="0.5" stroke-miterlimit="10"></path><path d="M55.0921 13.5971L59.5213 13.9182C63.9115 14.2363 67.4224 17.6933 67.8035 22.0807L68.1906 26.5041C68.3557 28.3826 69.1059 30.1622 70.3422 31.5906L73.247 34.9487C76.1278 38.2767 76.1638 43.2042 73.334 46.5773L70.4802 49.9773C69.2679 51.4208 68.5417 53.2123 68.4067 55.0939L68.0856 59.5233C67.7675 63.9136 64.3106 67.4247 59.9234 67.8058L55.5002 68.1929C53.6217 68.358 51.8422 69.1082 50.4138 70.3446L47.0559 73.2495C43.728 76.1304 38.8007 76.1664 35.4277 73.3365L32.0278 70.4826C30.5844 69.2703 28.7929 68.544 26.9114 68.409L22.4822 68.0879C18.092 67.7698 14.5811 64.3127 14.2 59.9254L13.8129 55.502C13.6478 53.6234 12.8976 51.8439 11.6613 50.4154L8.75651 47.0574C5.87572 43.7294 5.83971 38.8019 8.66948 35.4288L11.5233 32.0288C12.7356 30.5853 13.4618 28.7938 13.5968 26.9122L13.9179 22.4828C14.236 18.0925 17.6929 14.5814 22.0801 14.2003L26.5033 13.8131C28.3818 13.6481 30.1613 12.8979 31.5897 11.6615L34.9476 8.75659C38.2755 5.8757 43.2028 5.83969 46.5758 8.66956L49.9757 11.5234C51.4191 12.7358 53.2106 13.462 55.0921 13.5971Z" stroke="#2D5536" stroke-width="0.5" stroke-miterlimit="10"></path><path d="M59.0676 10.094L64.184 10.7452C69.2584 11.3904 73.1114 15.6217 73.2795 20.7353L73.4505 25.8909C73.5226 28.0816 74.2848 30.1942 75.6261 31.9258L78.786 36.004C81.9188 40.0463 81.6518 45.766 78.1558 49.4992L74.6298 53.2653C73.1324 54.8648 72.1782 56.8965 71.9021 59.0721L71.2509 64.1827C70.6058 69.2573 66.3746 73.1105 61.2612 73.2785L56.1058 73.4496C53.9152 73.5216 51.8027 74.2838 50.0712 75.6252L45.9931 78.7852C41.951 81.9182 36.2314 81.6511 32.4984 78.155L28.7324 74.6289C27.133 73.1315 25.1014 72.1772 22.9258 71.9011L17.8094 71.2499C12.7351 70.6047 8.88202 66.3734 8.71398 61.2598L8.54293 56.1042C8.47091 53.9135 7.7087 51.8009 6.36734 50.0694L3.20748 45.9911C0.0746339 41.9489 0.341706 36.2291 3.83765 32.4959L7.36361 28.7298C8.86102 27.1303 9.81528 25.0987 10.0914 22.923L10.7425 17.8064C11.3877 12.7318 15.6188 8.87865 20.7322 8.7106L25.8876 8.53955C28.0782 8.46753 30.1908 7.70529 31.9223 6.36388L36.0004 3.2039C40.0425 0.0709363 45.762 0.338018 49.495 3.8341L53.2611 7.36018C54.8635 8.86365 56.895 9.81794 59.0676 10.094Z" stroke="#2D5536" stroke-width="0.5" stroke-miterlimit="10"></path><path d="M58.2487 11.4964L63.134 12.1175C67.9773 12.7327 71.6563 16.775 71.8184 21.6545L71.9804 26.576C72.0494 28.6676 72.7756 30.6843 74.057 32.3378L77.0728 36.23C80.0616 40.0892 79.8065 45.5479 76.4696 49.113L73.1057 52.7081C71.6773 54.2355 70.7651 56.1741 70.501 58.2508L69.8799 63.1363C69.2647 67.9798 65.2226 71.6589 60.3433 71.821L55.4219 71.983C53.3304 72.052 51.3138 72.7783 49.6604 74.0597L45.7683 77.0756C41.9093 80.0645 36.4508 79.8094 32.8858 76.4724L29.2909 73.1084C27.7634 71.6799 25.8249 70.7676 23.7484 70.5036L18.863 69.8824C14.0197 69.2672 10.3407 65.2249 10.1787 60.3454L10.0166 55.4239C9.94761 53.3323 9.22141 51.3156 7.94006 49.6621L4.92424 45.7699C1.93543 41.9107 2.1905 36.4521 5.52741 32.887L8.89132 29.2918C10.3197 27.7644 11.232 25.8258 11.496 23.7491L12.1172 18.8636C12.7324 14.0201 16.7745 10.341 21.6538 10.1789L26.5751 10.0169C28.6667 9.94787 30.6832 9.22165 32.3367 7.94025L36.2287 4.92432C40.0878 1.9354 45.5463 2.19048 49.1112 5.52751L52.7062 8.89155C54.2336 10.323 56.1751 11.2323 58.2487 11.4964Z" stroke="#2D5536" stroke-width="0.5" stroke-miterlimit="10"></path><path d="M57.406 12.9368L62.0512 13.528C66.6575 14.1132 70.1594 17.9574 70.3125 22.5968L70.4655 27.2782C70.5315 29.2679 71.2217 31.1855 72.4401 32.7579L75.3088 36.4611C78.1536 40.1312 77.9105 45.3258 74.7357 48.7139L71.5338 52.1319C70.1744 53.5844 69.3072 55.4299 69.0551 57.4045L68.464 62.05C67.8788 66.6564 64.0348 70.1585 59.3955 70.3115L54.7143 70.4646C52.7247 70.5306 50.8072 71.2208 49.2348 72.4392L45.5318 75.3081C41.8618 78.1529 36.6674 77.9099 33.2794 74.7349L29.8615 71.5329C28.4091 70.1735 26.5636 69.3062 24.5891 69.0541L19.9438 68.463C15.3376 67.8778 11.8356 64.0336 11.6826 59.3942L11.5295 54.7127C11.4635 52.7231 10.7733 50.8055 9.55501 49.233L6.68623 45.5299C3.84146 41.8597 4.08453 36.6651 7.25939 33.2771L10.4613 29.859C11.8206 28.4066 12.6879 26.561 12.9399 24.5864L13.5311 19.941C14.1162 15.3346 17.9603 11.8325 22.5995 11.6794L27.2808 11.5264C29.2704 11.4604 31.1879 10.7702 32.7603 9.55177L36.4633 6.68289C40.1333 3.83801 45.3277 4.08109 48.7156 7.25607L52.1336 10.4581C53.5889 11.8205 55.4345 12.6877 57.406 12.9368Z" stroke="#2D5536" stroke-width="0.5" stroke-miterlimit="10"></path><path d="M56.5536 14.398L60.9588 14.9562C65.325 15.5114 68.6439 19.1545 68.7879 23.5539L68.935 27.9922C68.998 29.8768 69.6522 31.6954 70.8075 33.1868L73.5262 36.6979C76.2209 40.179 75.9929 45.1005 72.9831 48.3145L69.9492 51.5555C68.6589 52.9329 67.8367 54.6825 67.5996 56.5521L67.0415 60.9574C66.4863 65.3238 62.8433 68.6428 58.4441 68.7868L54.0059 68.9339C52.1214 68.9969 50.3029 69.6511 48.8115 70.8065L45.3006 73.5253C41.8196 76.2201 36.8983 75.9921 33.6844 72.9821L30.4435 69.9482C29.0662 68.6578 27.3167 67.8355 25.4472 67.5985L21.042 67.0403C16.6758 66.4851 13.3569 62.842 13.2129 58.4426L13.0658 54.0043C13.0028 52.1197 12.3486 50.3011 11.1933 48.8097L8.47457 45.2986C5.77984 41.8175 6.0079 36.896 9.01772 33.682L12.0515 30.441C13.3419 29.0636 14.1641 27.314 14.4012 25.4445L14.9593 21.0391C15.5145 16.6728 19.1575 13.3537 23.5567 13.2097L27.9949 13.0626C29.8794 12.9996 31.6979 12.3454 33.1893 11.1901L36.7002 8.47122C40.1812 5.77639 45.1025 6.00446 48.3164 9.01439L51.5573 12.0483C52.9316 13.3387 54.6811 14.161 56.5536 14.398Z" stroke="#2D5536" stroke-width="0.5" stroke-miterlimit="10"></path><path d="M55.9139 15.4875L60.136 16.0247C64.3251 16.5558 67.506 20.0519 67.644 24.2712L67.7851 28.5265C67.8451 30.3361 68.4723 32.0766 69.5796 33.508L72.1873 36.8751C74.771 40.2121 74.5519 44.9326 71.6681 48.0145L68.7573 51.1235C67.521 52.4439 66.7318 54.1214 66.5037 55.916L65.9666 60.1383C65.4354 64.3276 61.9395 67.5085 57.7203 67.6466L53.4652 67.7876C51.6557 67.8476 49.9152 68.4748 48.4838 69.5822L45.1169 72.19C41.78 74.7738 37.0597 74.5547 33.9779 71.6708L30.8691 68.7599C29.5487 67.5235 27.8712 66.7343 26.0768 66.5062L21.8546 65.9691C17.6715 65.4379 14.4906 61.9448 14.3526 57.7255L14.2115 53.4702C14.1515 51.6606 13.5244 49.9201 12.4171 48.4887L9.80935 45.1216C7.22565 41.7846 7.44471 37.0641 10.3285 33.9822L13.2393 30.8732C14.4756 29.5528 15.2648 27.8753 15.4929 26.0808L16.03 21.8585C16.5582 17.6692 20.0541 14.4882 24.2733 14.3501L28.5284 14.2091C30.3379 14.1491 32.0784 13.5219 33.5098 12.4145L36.8767 9.80673C40.2136 7.22294 44.9339 7.442 48.0157 10.3259L51.1246 13.2368C52.4419 14.4732 54.1194 15.2624 55.9139 15.4875Z" stroke="#2D5536" stroke-width="0.5" stroke-miterlimit="10"></path><path d="M55.2781 16.577L59.3202 17.0901C63.3293 17.6003 66.3751 20.9433 66.5072 24.9826L66.6422 29.0548C66.6992 30.7864 67.2994 32.4549 68.3617 33.8233L70.8584 37.0463C73.334 40.2423 73.121 44.7617 70.3602 47.7116L67.5755 50.6885C66.3931 51.9519 65.6369 53.5574 65.4179 55.2769L64.9047 59.3192C64.3946 63.3284 61.0517 66.3743 57.0126 66.5064L52.9405 66.6414C51.209 66.6984 49.5406 67.2986 48.1722 68.361L44.9493 70.8577C41.7535 73.3335 37.2342 73.1204 34.2844 70.3596L31.3076 67.5747C30.0443 66.3924 28.4389 65.6361 26.7194 65.417L22.6773 64.9039C18.6682 64.3937 15.6224 61.0507 15.4903 57.0115L15.3553 52.9392C15.2983 51.2077 14.6981 49.5392 13.6358 48.1707L11.1392 44.9477C8.6635 41.7517 8.87655 37.2324 11.6373 34.2824L14.4221 31.3055C15.6044 30.0421 16.3606 28.4366 16.5796 26.7171L17.0928 22.6749C17.6029 18.6656 20.9458 15.6197 24.9849 15.4876L29.057 15.3526C30.7885 15.2956 32.4569 14.6954 33.8253 13.6331L37.0482 11.1363C40.2441 8.66054 44.7633 8.8736 47.7131 11.6345L50.6899 14.4193C51.9562 15.6047 53.5617 16.3609 55.2781 16.577Z" stroke="#2D5536" stroke-width="0.5" stroke-miterlimit="10"></path><path d="M54.6298 17.6871L58.4889 18.1763C62.3149 18.6624 65.2227 21.8554 65.3517 25.7116L65.4808 29.6008C65.5348 31.2543 66.1109 32.8448 67.1222 34.1532L69.5049 37.2292C71.8665 40.2781 71.6654 44.5934 69.0277 47.4083L66.369 50.2502C65.2377 51.4566 64.5175 52.99 64.3104 54.6285L63.8213 58.4877C63.3352 62.3139 60.1423 65.2218 56.2863 65.3508L52.3972 65.4799C50.7438 65.5339 49.1533 66.1101 47.845 67.1214L44.7691 69.5041C41.7203 71.8658 37.4052 71.6648 34.5904 69.027L31.7486 66.3682C30.5423 65.2368 29.0089 64.5166 27.3704 64.3095L23.5114 63.8204C19.6853 63.3342 16.7776 60.1412 16.6485 56.285L16.5195 52.3958C16.4655 50.7423 15.8893 49.1518 14.878 47.8434L12.4954 44.7675C10.1338 41.7185 10.3348 37.4032 12.9725 34.5883L15.6312 31.7465C16.7626 30.5401 17.4828 29.0066 17.6898 27.3681L18.1789 23.5089C18.6651 19.6797 21.8579 16.7719 25.714 16.6458L29.603 16.5168C31.2565 16.4628 32.8469 15.8866 34.1553 14.8753L37.2311 12.4925C40.2799 10.1308 44.5951 10.3319 47.4099 12.9697L50.2516 15.6285C51.458 16.7568 52.9914 17.4771 54.6298 17.6871Z" stroke="#2D5536" stroke-width="0.5" stroke-miterlimit="10"></path><path d="M54.2664 18.3055L58.0234 18.7826C61.7474 19.2567 64.5802 22.3627 64.7032 26.1169L64.8293 29.901C64.8833 31.5095 65.4414 33.061 66.4257 34.3334L68.7453 37.3283C71.0439 40.2962 70.8489 44.4975 68.2832 47.2374L65.6935 50.0012C64.5922 51.1746 63.893 52.6691 63.689 54.2655L63.2118 58.0227C62.7377 61.7469 59.6319 64.5797 55.8778 64.7028L52.0938 64.8288C50.4854 64.8828 48.934 65.441 47.6616 66.4253L44.6668 68.745C41.699 71.0437 37.4979 70.8487 34.7581 68.2829L31.9944 65.6931C30.821 64.5917 29.3266 63.8925 27.7302 63.6885L23.9732 63.2143C20.2492 62.7402 17.4164 59.6342 17.2934 55.88L17.1673 52.0959C17.1133 50.4874 16.5552 48.9359 15.5709 47.6635L13.2513 44.6686C10.9527 41.7007 11.1477 37.4994 13.7134 34.7595L16.3031 31.9957C17.4044 30.8223 18.1036 29.3279 18.3076 27.7314L18.7848 23.9712C19.2589 20.2471 22.3647 17.4142 26.1188 17.2911L29.9028 17.1651C31.5112 17.1111 33.0627 16.5529 34.335 15.5686L37.3298 13.2489C40.2976 10.9502 44.4988 11.1452 47.2385 13.711L50.0022 16.3008C51.1786 17.4022 52.67 18.1044 54.2664 18.3055Z" stroke="#2D5536" stroke-width="0.5" stroke-miterlimit="10"></path><path d="M54.3692 18.1343L58.1563 18.6145C61.9103 19.0916 64.7611 22.2216 64.8871 26.0058L65.0131 29.8199C65.0671 31.4404 65.6283 33.0039 66.6216 34.2853L68.9592 37.3012C71.2758 40.2932 71.0778 44.5245 68.4941 47.2853L65.8864 50.0702C64.7791 51.2525 64.0709 52.756 63.8668 54.3645L63.3867 58.1517C62.9096 61.9058 59.7797 64.7567 55.9957 64.8828L52.1817 65.0088C50.5612 65.0628 48.9978 65.624 47.7164 66.6173L44.7006 68.955C41.7088 71.2717 37.4777 71.0737 34.7169 68.4899L31.9322 65.8821C30.7498 64.7747 29.2464 64.0665 27.638 63.8624L23.851 63.3823C20.097 62.9051 17.2462 59.7752 17.1201 55.991L16.9941 52.1768C16.9401 50.5563 16.3789 48.9928 15.3857 47.7114L13.048 44.6955C10.7314 41.7036 10.9295 37.4723 13.5132 34.7114L16.1209 31.9266C17.2282 30.7442 17.9364 29.2407 18.1404 27.6323L18.6206 23.8451C19.0977 20.0909 22.2275 17.24 26.0116 17.114L29.8256 16.988C31.446 16.934 33.0095 16.3728 34.2908 15.3795L37.3066 13.0418C40.2984 10.725 44.5296 10.9231 47.2903 13.5069L50.0751 16.1147C51.2574 17.222 52.7608 17.9303 54.3692 18.1343Z" fill="#2D5536" stroke="#2D5536" stroke-width="5" stroke-miterlimit="10"></path><path d="M25.9821 56.4444C27.196 56.4444 27.9114 55.8157 27.9114 54.8691C27.9114 53.9515 27.2032 53.6335 26.1338 53.3951C25.3679 53.2217 25.0716 53.1061 25.0716 52.7448C25.0716 52.4485 25.3462 52.2101 25.8014 52.2101C26.2783 52.2101 26.7769 52.4051 27.2177 52.7592L27.7741 51.9933C27.2683 51.5597 26.6396 51.3068 25.8303 51.3068C24.7465 51.3068 23.995 51.9355 23.995 52.8531C23.995 53.8142 24.7392 54.1104 25.787 54.3489C26.5457 54.5223 26.8347 54.6307 26.8347 54.9848C26.8347 55.2955 26.5601 55.5411 26.0254 55.5411C25.3968 55.5411 24.8621 55.2955 24.3924 54.8908L23.7782 55.6206C24.3563 56.1553 25.1222 56.4444 25.9821 56.4444ZM33.4013 52.3546V51.3935H29.5788V56.3577H33.4013V55.3966H30.6483V54.3055H33.1412V53.3445H30.6483V52.3546H33.4013ZM37.5944 56.4444C38.3459 56.4444 39.0323 56.1192 39.5165 55.6134L38.7505 54.9197C38.4615 55.2521 38.0496 55.4761 37.5944 55.4761C36.7634 55.4761 36.0553 54.7391 36.0553 53.872C36.0553 53.0121 36.7634 52.2751 37.5944 52.2751C38.0496 52.2751 38.4615 52.4991 38.7433 52.8315L39.5165 52.1378C39.0323 51.6248 38.3459 51.3068 37.5944 51.3068C36.1637 51.3068 34.957 52.4774 34.957 53.872C34.957 55.2666 36.1637 56.4444 37.5944 56.4444ZM43.2691 56.4444C44.5842 56.4444 45.5163 55.5195 45.5163 54.2116V51.3935H44.4469V54.1682C44.4469 54.9342 43.9628 55.4761 43.2691 55.4761C42.5754 55.4761 42.0913 54.9342 42.0913 54.1682V51.3935H41.0219V54.2116C41.0219 55.5195 41.954 56.4444 43.2691 56.4444ZM51.4442 53.0699C51.4442 52.0872 50.6493 51.3935 49.5727 51.3935H47.3399V56.3577H48.4021V54.7463H49.0452L50.1797 56.3577H51.3936L50.2013 54.6596C50.9456 54.4428 51.4442 53.8503 51.4442 53.0699ZM48.4021 52.369H49.4643C49.9846 52.369 50.3459 52.6436 50.3459 53.0699C50.3459 53.4962 49.9846 53.7708 49.4643 53.7708H48.4021V52.369ZM56.991 52.3546V51.3935H53.1686V56.3577H56.991V55.3966H54.238V54.3055H56.7309V53.3445H54.238V52.3546H56.991Z" fill="white"></path><path d="M33.7458 34.1671C35.2439 34.477 36.3891 35.097 37.1812 36.0269C37.9906 36.9395 38.3953 38.0503 38.3953 39.359C38.3953 40.4267 38.1025 41.4168 37.517 42.3295C36.9487 43.2422 36.0705 43.9827 34.8823 44.5509C33.7113 45.102 32.2562 45.3775 30.517 45.3775C29.2427 45.3775 27.977 45.2225 26.7199 44.9125C25.48 44.6026 24.4038 44.1635 23.4911 43.5952L25.3509 39.7465C26.0569 40.2286 26.849 40.5989 27.7273 40.8572C28.6227 41.1155 29.501 41.2446 30.362 41.2446C31.2402 41.2446 31.9376 41.081 32.4542 40.7538C32.9709 40.4267 33.2292 39.9617 33.2292 39.359C33.2292 38.188 32.3079 37.6025 30.4653 37.6025H28.3214V34.3737L31.5502 30.8866H24.421V26.9345H37.4912V30.1375L33.7458 34.1671ZM40.9664 26.9345H49.5163C51.4966 26.9345 53.2531 27.3048 54.7857 28.0453C56.3183 28.7857 57.5065 29.8362 58.3503 31.1966C59.1941 32.557 59.616 34.1499 59.616 35.9752C59.616 37.8006 59.1941 39.3934 58.3503 40.7538C57.5065 42.1142 56.3183 43.1647 54.7857 43.9052C53.2531 44.6456 51.4966 45.0159 49.5163 45.0159H40.9664V26.9345ZM49.3096 40.9347C50.8595 40.9347 52.0993 40.4955 53.0292 39.6173C53.9763 38.7391 54.4499 37.525 54.4499 35.9752C54.4499 34.4254 53.9763 33.2113 53.0292 32.3331C52.0993 31.4549 50.8595 31.0158 49.3096 31.0158H46.0808V40.9347H49.3096Z" fill="white"></path></symbol></defs><use href="#security-data-list__icon-3" fill="#222B55"></use></svg>