<svg width="177" height="51" viewBox="0 0 177 51" fill="none" xmlns="http://www.w3.org/2000/svg">
<path d="M170.703 51H6.20024C2.78218 51 0 48.2868 0 44.9654V6.02565C0 2.703 2.78218 0 6.20024 0H170.703C174.119 0 177 2.703 177 6.02565V44.9654C177 48.2868 174.119 51 170.703 51Z" fill="#A6A6A6"/>
<path d="M175.731 44.9667C175.731 47.6646 173.484 49.85 170.704 49.85H6.20035C3.4221 49.85 1.16699 47.6646 1.16699 44.9667V6.02439C1.16699 3.32777 3.4221 1.13477 6.20035 1.13477H170.703C173.484 1.13477 175.73 3.32777 175.73 6.02439L175.731 44.9667Z" fill="black"/>
<path d="M39.5008 25.2247C39.4628 21.1153 42.9608 19.1161 43.1208 19.0231C41.1397 16.2142 38.0691 15.8305 36.99 15.7999C34.4111 15.5359 31.9095 17.3005 30.5957 17.3005C29.2558 17.3005 27.2327 15.8254 25.0523 15.8687C22.2466 15.9108 19.6217 17.4905 18.1821 19.9436C15.2111 24.9454 17.4269 32.2958 20.2733 36.3388C21.6972 38.3189 23.361 40.5298 25.5388 40.452C27.6693 40.3666 28.4652 39.1311 31.0363 39.1311C33.5837 39.1311 34.3311 40.452 36.5521 40.4023C38.8387 40.3666 40.2783 38.4133 41.6523 36.4153C43.2978 34.1458 43.9586 31.9108 43.9848 31.796C43.931 31.7782 39.5441 30.15 39.5008 25.2247Z" fill="white"/>
<path d="M35.3052 13.1402C36.4511 11.7467 37.2352 9.85073 37.0175 7.92676C35.359 7.99816 33.2848 9.04238 32.0904 10.4054C31.0336 11.6064 30.0896 13.575 30.3335 15.4263C32.1966 15.5615 34.1095 14.5121 35.3052 13.1402Z" fill="white"/>
<path d="M70.3346 40.1674H67.3571L65.726 35.1834H60.0568L58.5031 40.1674H55.6042L61.2211 23.1997H64.6903L70.3346 40.1674ZM65.2344 33.0924L63.7594 28.6618C63.6033 28.2092 63.311 27.1433 62.8796 25.4654H62.8272C62.6554 26.187 62.3788 27.2529 61.9985 28.6618L60.5498 33.0924H65.2344Z" fill="white"/>
<path d="M84.7793 33.8996C84.7793 35.9804 84.2011 37.6251 83.0447 38.8325C82.0089 39.9074 80.7227 40.4441 79.1874 40.4441C77.5302 40.4441 76.3397 39.8653 75.6146 38.7076H75.5622V45.1527H72.7669V31.9603C72.7669 30.6521 72.7315 29.3096 72.6633 27.9326H75.1217L75.2777 29.8718H75.3301C76.2623 28.4107 77.677 27.6814 79.5755 27.6814C81.0597 27.6814 82.2987 28.2513 83.2899 29.3924C84.2837 30.5348 84.7793 32.0368 84.7793 33.8996ZM81.9316 33.999C81.9316 32.8082 81.6562 31.8264 81.103 31.0538C80.4985 30.248 79.687 29.8451 78.6695 29.8451C77.9799 29.8451 77.3532 30.0695 76.7933 30.5119C76.2322 30.9581 75.8651 31.5408 75.6933 32.2625C75.6068 32.5991 75.5635 32.8745 75.5635 33.0912V35.1312C75.5635 36.0212 75.8441 36.7721 76.4052 37.3854C76.9664 37.9987 77.6954 38.3047 78.5922 38.3047C79.645 38.3047 80.4644 37.9094 81.0505 37.1215C81.6379 36.3323 81.9316 35.2919 81.9316 33.999Z" fill="white"/>
<path d="M99.2497 33.8996C99.2497 35.9804 98.6715 37.6251 97.5138 38.8325C96.4793 39.9074 95.1931 40.4441 93.6578 40.4441C92.0005 40.4441 90.81 39.8653 90.0863 38.7076H90.0339V45.1527H87.2386V31.9603C87.2386 30.6521 87.2032 29.3096 87.135 27.9326H89.5933L89.7494 29.8718H89.8018C90.7327 28.4107 92.1474 27.6814 94.0472 27.6814C95.53 27.6814 96.769 28.2513 97.7629 29.3924C98.7528 30.5348 99.2497 32.0368 99.2497 33.8996ZM96.4019 33.999C96.4019 32.8082 96.1253 31.8264 95.572 31.0538C94.9676 30.248 94.1586 29.8451 93.1399 29.8451C92.4489 29.8451 91.8235 30.0695 91.2624 30.5119C90.7012 30.9581 90.3354 31.5408 90.1637 32.2625C90.0784 32.5991 90.0339 32.8745 90.0339 33.0912V35.1312C90.0339 36.0212 90.3144 36.7721 90.873 37.3854C91.4341 37.9974 92.1631 38.3047 93.0625 38.3047C94.1154 38.3047 94.9348 37.9094 95.5209 37.1215C96.1082 36.3323 96.4019 35.2919 96.4019 33.999Z" fill="white"/>
<path d="M115.429 35.4092C115.429 36.8525 114.914 38.0268 113.879 38.9333C112.743 39.924 111.16 40.4187 109.127 40.4187C107.249 40.4187 105.744 40.0668 104.604 39.3617L105.252 37.096C106.479 37.8177 107.826 38.1798 109.293 38.1798C110.346 38.1798 111.165 37.9477 111.754 37.4862C112.34 37.0246 112.632 36.405 112.632 35.6323C112.632 34.9438 112.391 34.3637 111.907 33.8932C111.426 33.4227 110.622 32.9854 109.5 32.5812C106.445 31.4733 104.919 29.8502 104.919 27.7158C104.919 26.321 105.454 25.1773 106.525 24.2874C107.593 23.3961 109.016 22.9512 110.797 22.9512C112.385 22.9512 113.704 23.2202 114.756 23.757L114.058 25.9729C113.074 25.4527 111.962 25.1926 110.718 25.1926C109.735 25.1926 108.967 25.4285 108.416 25.8977C107.95 26.3172 107.717 26.8284 107.717 27.4341C107.717 28.1047 107.983 28.6593 108.518 29.0954C108.984 29.4983 109.829 29.9343 111.056 30.4048C112.558 30.9926 113.66 31.6798 114.37 32.4678C115.076 33.2532 115.429 34.2362 115.429 35.4092Z" fill="white"/>
<path d="M124.671 29.9726H121.59V35.9128C121.59 37.4237 122.133 38.1785 123.221 38.1785C123.72 38.1785 124.135 38.1364 124.462 38.0522L124.54 40.1165C123.989 40.3166 123.264 40.4174 122.366 40.4174C121.262 40.4174 120.399 40.0897 119.777 39.4356C119.156 38.7803 118.844 37.6812 118.844 36.1372V29.97H117.009V27.93H118.844V25.6898L121.59 24.884V27.93H124.671V29.9726Z" fill="white"/>
<path d="M138.573 33.9492C138.573 35.8299 138.02 37.3739 136.916 38.5813C135.758 39.8244 134.221 40.4441 132.306 40.4441C130.46 40.4441 128.99 39.8487 127.894 38.6578C126.798 37.467 126.25 35.9637 126.25 34.152C126.25 32.256 126.814 30.7031 127.945 29.4957C129.074 28.287 130.597 27.6826 132.513 27.6826C134.359 27.6826 135.844 28.278 136.965 29.4702C138.038 30.6266 138.573 32.1196 138.573 33.9492ZM135.673 34.0372C135.673 32.9088 135.425 31.9411 134.923 31.134C134.337 30.1574 133.499 29.6703 132.413 29.6703C131.29 29.6703 130.436 30.1587 129.85 31.134C129.348 31.9424 129.1 32.9254 129.1 34.0882C129.1 35.2166 129.348 36.1843 129.85 36.9901C130.454 37.9668 131.299 38.4538 132.388 38.4538C133.456 38.4538 134.293 37.9566 134.898 36.9646C135.413 36.1422 135.673 35.1643 135.673 34.0372Z" fill="white"/>
<path d="M147.658 30.3232C147.382 30.2735 147.087 30.248 146.777 30.248C145.794 30.248 145.034 30.6088 144.499 31.3317C144.033 31.9692 143.8 32.775 143.8 33.7478V40.1675H141.006L141.032 31.7856C141.032 30.3755 140.997 29.0915 140.927 27.9338H143.362L143.464 30.2747H143.542C143.837 29.4702 144.302 28.8225 144.939 28.3367C145.562 27.8994 146.235 27.6814 146.96 27.6814C147.218 27.6814 147.451 27.6992 147.658 27.7311V30.3232Z" fill="white"/>
<path d="M160.16 33.4712C160.16 33.9582 160.128 34.3688 160.058 34.7041H151.672C151.705 35.9128 152.11 36.8372 152.889 37.4747C153.596 38.0446 154.51 38.3302 155.632 38.3302C156.873 38.3302 158.006 38.1377 159.025 37.7513L159.463 39.6383C158.272 40.1432 156.867 40.3944 155.245 40.3944C153.294 40.3944 151.763 39.836 150.648 38.7203C149.536 37.6047 148.979 36.1066 148.979 34.2272C148.979 32.3823 149.497 30.8459 150.534 29.6207C151.62 28.3125 153.087 27.6584 154.933 27.6584C156.746 27.6584 158.119 28.3125 159.051 29.6207C159.789 30.6598 160.16 31.945 160.16 33.4712ZM157.495 32.7661C157.513 31.9603 157.331 31.2641 156.952 30.6764C156.468 29.9203 155.725 29.5429 154.725 29.5429C153.811 29.5429 153.067 29.9114 152.5 30.6509C152.034 31.2386 151.757 31.9437 151.672 32.7648H157.495V32.7661Z" fill="white"/>
<path d="M64.3098 12.7616C64.3098 14.2623 63.847 15.3919 62.9227 16.1505C62.0665 16.8505 60.8498 17.2011 59.2739 17.2011C58.4924 17.2011 57.8238 17.168 57.2639 17.1017V8.90216C57.9942 8.78741 58.7809 8.72876 59.6305 8.72876C61.1317 8.72876 62.2632 9.04623 63.0263 9.68118C63.8811 10.399 64.3098 11.4254 64.3098 12.7616ZM62.8611 12.7986C62.8611 11.8257 62.5962 11.0799 62.0665 10.5597C61.5368 10.0407 60.7633 9.78063 59.7445 9.78063C59.3119 9.78063 58.9435 9.80868 58.638 9.86733V16.1008C58.8071 16.1263 59.1165 16.1378 59.5662 16.1378C60.6177 16.1378 61.4293 15.8535 62.001 15.2848C62.5726 14.7162 62.8611 13.8874 62.8611 12.7986Z" fill="white"/>
<path d="M71.9914 14.0722C71.9914 14.9966 71.72 15.754 71.1772 16.3481C70.6082 16.9588 69.8543 17.2636 68.9129 17.2636C68.0056 17.2636 67.2832 16.9716 66.7443 16.3851C66.2068 15.7999 65.938 15.0616 65.938 14.1717C65.938 13.2409 66.2146 12.4772 66.7705 11.8843C67.3265 11.2915 68.0738 10.9944 69.0152 10.9944C69.9225 10.9944 70.6514 11.2864 71.2034 11.8716C71.7279 12.4402 71.9914 13.1746 71.9914 14.0722ZM70.5662 14.1156C70.5662 13.561 70.443 13.0854 70.1978 12.6889C69.9093 12.2095 69.499 11.9698 68.9653 11.9698C68.4134 11.9698 67.9938 12.2095 67.7054 12.6889C67.4589 13.0854 67.3369 13.5686 67.3369 14.1398C67.3369 14.6944 67.4602 15.17 67.7054 15.5665C68.003 16.0459 68.4173 16.2856 68.9522 16.2856C69.4767 16.2856 69.8884 16.0421 70.1847 15.5538C70.439 15.1496 70.5662 14.6702 70.5662 14.1156Z" fill="white"/>
<path d="M82.292 11.1167L80.3582 17.127H79.0995L78.2984 14.5171C78.0952 13.8656 77.93 13.2179 77.8015 12.5753H77.7766C77.6573 13.2357 77.4921 13.8822 77.2797 14.5171L76.4288 17.127H75.1557L73.3372 11.1167H74.7492L75.448 13.974C75.6172 14.6497 75.7562 15.2936 75.8676 15.903H75.8925C75.9948 15.4007 76.1639 14.7606 76.4025 13.9867L77.2797 11.118H78.3994L79.2398 13.9255C79.443 14.6102 79.6082 15.2694 79.7354 15.9043H79.7734C79.8665 15.2859 80.0068 14.6268 80.193 13.9255L80.9429 11.118H82.292V11.1167Z" fill="white"/>
<path d="M89.4151 17.1271H88.041V13.6846C88.041 12.6238 87.6267 12.0934 86.7955 12.0934C86.3877 12.0934 86.0586 12.2387 85.803 12.5307C85.5499 12.8227 85.4214 13.1669 85.4214 13.5609V17.1258H84.0474V12.8341C84.0474 12.3063 84.0303 11.7338 83.9976 11.1142H85.2051L85.2693 12.0538H85.3074C85.4673 11.7619 85.7059 11.5209 86.0193 11.3284C86.3916 11.104 86.8086 10.9905 87.2648 10.9905C87.8417 10.9905 88.3216 11.1715 88.7031 11.5349C89.1777 11.9799 89.4151 12.6442 89.4151 13.5265V17.1271Z" fill="white"/>
<path d="M93.2043 17.1271H91.8315V8.35889H93.2043V17.1271Z" fill="white"/>
<path d="M101.294 14.0722C101.294 14.9966 101.022 15.754 100.479 16.3481C99.9104 16.9588 99.1552 17.2636 98.2151 17.2636C97.3065 17.2636 96.5841 16.9716 96.0466 16.3851C95.509 15.7999 95.2402 15.0616 95.2402 14.1717C95.2402 13.2409 95.5169 12.4772 96.0728 11.8843C96.6287 11.2915 97.376 10.9944 98.3161 10.9944C99.2247 10.9944 99.9524 11.2864 100.506 11.8716C101.03 12.4402 101.294 13.1746 101.294 14.0722ZM99.8671 14.1156C99.8671 13.561 99.7439 13.0854 99.4987 12.6889C99.2116 12.2095 98.7999 11.9698 98.2676 11.9698C97.7143 11.9698 97.2947 12.2095 97.0076 12.6889C96.7611 13.0854 96.6392 13.5686 96.6392 14.1398C96.6392 14.6944 96.7624 15.17 97.0076 15.5665C97.3052 16.0459 97.7195 16.2856 98.2545 16.2856C98.7789 16.2856 99.1893 16.0421 99.4856 15.5538C99.7413 15.1496 99.8671 14.6702 99.8671 14.1156Z" fill="white"/>
<path d="M107.943 17.1271H106.71L106.607 16.4348H106.569C106.147 16.9869 105.545 17.2636 104.764 17.2636C104.18 17.2636 103.709 17.0812 103.353 16.7191C103.031 16.3902 102.869 15.9809 102.869 15.4951C102.869 14.7607 103.184 14.201 103.817 13.8134C104.449 13.4258 105.338 13.2358 106.483 13.2448V13.1326C106.483 12.3408 106.055 11.9455 105.199 11.9455C104.59 11.9455 104.052 12.0947 103.588 12.3905L103.309 11.5133C103.883 11.1678 104.592 10.9944 105.429 10.9944C107.044 10.9944 107.854 11.8231 107.854 13.4806V15.694C107.854 16.2946 107.884 16.7727 107.943 17.1271ZM106.517 15.0616V14.1347C105.001 14.1092 104.243 14.5134 104.243 15.346C104.243 15.6596 104.33 15.8942 104.507 16.051C104.684 16.2079 104.909 16.2856 105.178 16.2856C105.48 16.2856 105.762 16.1926 106.019 16.0077C106.277 15.8215 106.436 15.5857 106.495 15.2962C106.509 15.2312 106.517 15.1522 106.517 15.0616Z" fill="white"/>
<path d="M115.751 17.1271H114.532L114.468 16.1619H114.43C114.04 16.8963 113.377 17.2635 112.445 17.2635C111.7 17.2635 111.08 16.9792 110.588 16.4105C110.096 15.8419 109.851 15.1036 109.851 14.1971C109.851 13.2243 110.117 12.4363 110.652 11.8345C111.17 11.2735 111.805 10.993 112.56 10.993C113.39 10.993 113.971 11.2646 114.301 11.809H114.327V8.35889H115.703V15.5078C115.703 16.093 115.719 16.6324 115.751 17.1271ZM114.327 14.5924V13.5902C114.327 13.4168 114.314 13.2766 114.289 13.1695C114.212 12.8482 114.046 12.5779 113.793 12.3598C113.537 12.1418 113.229 12.0322 112.873 12.0322C112.361 12.0322 111.96 12.2298 111.665 12.6263C111.372 13.0228 111.224 13.529 111.224 14.1474C111.224 14.7415 111.364 15.2235 111.646 15.5945C111.944 15.9898 112.345 16.1874 112.847 16.1874C113.298 16.1874 113.659 16.0229 113.933 15.6927C114.198 15.388 114.327 15.0208 114.327 14.5924Z" fill="white"/>
<path d="M127.503 14.0722C127.503 14.9966 127.231 15.754 126.689 16.3481C126.12 16.9588 125.367 17.2636 124.424 17.2636C123.518 17.2636 122.796 16.9716 122.256 16.3851C121.718 15.7999 121.449 15.0616 121.449 14.1717C121.449 13.2409 121.726 12.4772 122.282 11.8843C122.838 11.2915 123.585 10.9944 124.528 10.9944C125.434 10.9944 126.164 11.2864 126.715 11.8716C127.239 12.4402 127.503 13.1746 127.503 14.0722ZM126.079 14.1156C126.079 13.561 125.956 13.0854 125.711 12.6889C125.421 12.2095 125.012 11.9698 124.477 11.9698C123.926 11.9698 123.507 12.2095 123.217 12.6889C122.97 13.0854 122.848 13.5686 122.848 14.1398C122.848 14.6944 122.972 15.17 123.217 15.5665C123.514 16.0459 123.929 16.2856 124.464 16.2856C124.988 16.2856 125.401 16.0421 125.697 15.5538C125.951 15.1496 126.079 14.6702 126.079 14.1156Z" fill="white"/>
<path d="M134.891 17.1271H133.518V13.6846C133.518 12.6238 133.104 12.0934 132.271 12.0934C131.864 12.0934 131.535 12.2387 131.28 12.5307C131.026 12.8227 130.899 13.1669 130.899 13.5609V17.1258H129.523V12.8341C129.523 12.3063 129.508 11.7338 129.475 11.1142H130.681L130.745 12.0538H130.783C130.945 11.7619 131.183 11.5209 131.495 11.3284C131.869 11.104 132.285 10.9905 132.742 10.9905C133.318 10.9905 133.798 11.1715 134.179 11.5349C134.655 11.9799 134.891 12.6442 134.891 13.5265V17.1271Z" fill="white"/>
<path d="M144.138 12.1176H142.625V15.0373C142.625 15.7794 142.894 16.1504 143.426 16.1504C143.673 16.1504 143.877 16.13 144.038 16.0879L144.074 17.1016C143.802 17.201 143.446 17.2507 143.006 17.2507C142.464 17.2507 142.042 17.0901 141.736 16.7688C141.429 16.4475 141.277 15.9069 141.277 15.1483V12.1176H140.374V11.1167H141.277V10.0151L142.624 9.61987V11.1154H144.137V12.1176H144.138Z" fill="white"/>
<path d="M151.412 17.1271H150.037V13.7101C150.037 12.6327 149.623 12.0934 148.793 12.0934C148.156 12.0934 147.72 12.4057 147.482 13.0305C147.441 13.1618 147.417 13.3225 147.417 13.5112V17.1258H146.045V8.35889H147.417V11.9812H147.444C147.876 11.322 148.496 10.993 149.3 10.993C149.869 10.993 150.34 11.1741 150.714 11.5375C151.179 11.9901 151.412 12.6633 151.412 13.5532V17.1271Z" fill="white"/>
<path d="M158.916 13.8376C158.916 14.0773 158.897 14.2788 158.864 14.4433H154.744C154.762 15.0374 154.959 15.49 155.34 15.8037C155.689 16.0842 156.139 16.2244 156.689 16.2244C157.299 16.2244 157.855 16.1301 158.356 15.9401L158.571 16.8683C157.985 17.1157 157.295 17.2393 156.497 17.2393C155.539 17.2393 154.786 16.9652 154.24 16.417C153.692 15.8687 153.421 15.133 153.421 14.2099C153.421 13.3034 153.674 12.5486 154.184 11.9468C154.716 11.3042 155.436 10.9829 156.344 10.9829C157.233 10.9829 157.909 11.3042 158.365 11.9468C158.733 12.4568 158.916 13.0879 158.916 13.8376ZM157.604 13.4921C157.615 13.0956 157.524 12.7539 157.338 12.4657C157.1 12.0947 156.736 11.9086 156.245 11.9086C155.796 11.9086 155.431 12.0896 155.151 12.453C154.923 12.7424 154.788 13.0879 154.744 13.4921H157.604Z" fill="white"/>
</svg>
