<svg width="1024" height="848" viewBox="0 0 1024 848" fill="none" xmlns="http://www.w3.org/2000/svg">
<path d="M584.5 6.20004C581 22.1 583 22.5 578.3 38.1C575.9 46.2 570.7 71.2 567.6 79.1C565.6 84.1 562.5 89.5 567.3 94.3C580 106.9 589.1 85.8 592 78.7C598.7 62 604.8 35.2 610.2 18.1C612.2 11.6 613.2 4.60003 606.5 0.200035C599.5 -4.49996 586.3 -1.89997 584.5 6.20004Z" fill="#EDB996"/>
<path d="M604.4 42.2C599.1 40.3 580.7 39.1 573.2 36.9C573.2 36.9 576.9 7.49998 579.1 -1.10002C584.8 -23.1 615.6 -26.1 623.1 -25C630.8 -23.9 615.7 -5.90002 614.6 0.999983C612.8 11.4 606.5 35.4 604.4 42.2Z" fill="#F9CE00"/>
<path d="M592 132.2C592.4 123 607.2 51.3 603.3 50.8C584.6 48.4 594.6 0.199994 595.6 -4.10001C598 -14.8 605.8 -17.3 607.5 -17.8C611.8 -19.1 616.4 -20.9 622.6 -22.5C622.6 -21.5 622.2 -14.8 628.8 -13.9C640 -12.3 644.5 -19.4 645.6 -26C657.5 -26 677.5 -20.2 686.1 -16.2C687.7 -15.4 688.8 -11.8 689.4 -2C690 8.1 687.7 24.6 682.8 48C678 71 682.9 132.1 682.9 132.1H592V132.2Z" fill="#F9CE00"/>
<path d="M627.6 71.8C636.9 71.5 673.1 70.5 673.2 70.2C673.6 68.1 671.3 29.8 670.3 18.3C669.7 11.7 669.9 5.09997 676.5 1.39997C685.3 -3.60003 694.1 3.19998 695.3 12.8C696.3 20.8 700.5 19.9 700.6 28C700.7 40.1 697.1 61.2 695.4 73.3C694.1 82.6 692.9 92.1 681.6 91C668.5 89.7 652.5 87.3 639.5 84.8C635.3 84 630.5 83.9 626.5 82.5C620.8 80.5 621.3 72 627.6 71.8Z" fill="#F7C19C"/>
<path d="M638.1 71.6C629 71.3 625 70 613.2 69.7C609.4 69.6 595.7 76 591.9 78.6C588.1 81.2 593.1 82.3 595.1 82.7C599.5 83.4 603.2 83.3 615.9 81.6C619.4 81.1 626.7 82.1 629.6 82.5C632 82.8 633.1 83.1 636.8 83.7C639.7 84.2 641.7 80.1 641.7 77.7C641.8 72.2 638.1 71.6 638.1 71.6Z" fill="#F7C19C"/>
<path d="M670.7 42.2C679.5 43.7 700.4 41.8 706.2 40.4C706.2 40.4 708 23.7 705.9 7.3C703.5 -11.8 687.4 -15.9 683.2 -16.9C675 -18.8 670.4 -7.4 670 0.6C669.2 14.6 670.2 30.9 670.7 42.2Z" fill="#F9CE00"/>
<path d="M575.8 83.6H532.7C532.5 83.6 532.3 83.4 532.3 83.2V77H575.8V83.6Z" fill="#3F58B2"/>
<path d="M544.5 13.6H509.5C508.6 13.6 508 14.5 508.3 15.3L532.4 76.1C532.6 76.6 533.1 76.9 533.6 76.9H568.6C569.5 76.9 570.1 76 569.8 75.2L545.7 14.4C545.5 14 545 13.6 544.5 13.6Z" fill="#3F58B2"/>
<path d="M542.4 13.6H507.4C506.5 13.6 505.9 14.5 506.2 15.3L530.3 76.1C530.5 76.6 531 76.9 531.5 76.9H566.5C567.4 76.9 568 76 567.7 75.2L543.6 14.4C543.4 14 542.9 13.6 542.4 13.6Z" fill="#122894"/>
<path d="M570 83.6H629.5C629.7 83.6 629.9 83.4 629.9 83.2V77H569.6V83.1C569.5 83.4 569.7 83.6 570 83.6Z" fill="#122894"/>
<path d="M568.7 99.7C562.5 98.7 561.2 92.1 561.7 88.6H584.6C584.5 88.6 583.5 102 568.7 99.7Z" fill="#DBA783"/>
<path d="M593.7 86.9C592.7 86 591.6 86.7 590 87.6C589.1 88.1 587.8 88.5 587.8 88.5C587.8 88.5 588.8 87.4 589.3 86.4C589.7 85.7 589.9 84.3 588.6 83.4C587.8 82.8 587 82.7 585.7 83.2C585.6 83 585.3 82.5999 584.9 82.2999C583.4 81.2999 581.1 82.4 579.5 83.6C579.3 83.3 579.1 83.1999 578.5 82.7999C577.5 82.1999 575.7 82.3999 571.6 85.2999C568.6 87.3999 567 88.4 567 88.4H562.2C562.2 88.4 561.6 88.1999 559.9 85.2999C557.5 81.1999 554 82.7 554.5 85.1C555.7 89.9 556.9 90.8 557.6 91.2C559.2 92.1 562 93.5 565 94.4C567.6 95.1 569.7 96.2 574 96.4C580.2 96.7 581.6 96.3999 584.4 95.2999C587.2 94.2999 591.6 91.6 593.6 89.7C594.7 89 594.7 87.7 593.7 86.9Z" fill="#F7C19C"/>
<path d="M655 -15.7C650.7 -16 644 -9.49999 636 -9.99999C626.7 -10.6 615.9 -17.9 609.9 -16.5C611 -10.4 623 24.4 633.8 44.4C633.8 44.4 654.1 -1.29999 655 -15.7Z" fill="#FF92BE"/>
<path d="M632.6 5.20003C628.1 5.20003 628.1 -1.59998 632.6 -1.59998C637.1 -1.49998 637.1 5.20003 632.6 5.20003Z" fill="#F95D95"/>
<path d="M632.6 14.5C637.1 14.5 637.1 21.3 632.6 21.3C628.1 21.3 628.1 14.5 632.6 14.5Z" fill="#F95D95"/>
<path d="M620.2 -28.1C620.2 -28.1 621.9 -16.5 633 -12.9C633 -12.9 653 -18.5 654.1 -29.1L667.5 -22.5C667.5 -22.5 659.2 -3.79997 643.6 1.30003L633.3 -10.4L620.2 -0.199966C620.2 -0.199966 605.7 -15.9 606.5 -23.6L620.2 -28.1Z" fill="#FFCAE2"/>
<path d="M267.2 555.1C262.3 551.4 257.4 547.8 252.5 544.1H252.6L252.8 543.2L271.1 445.5C345.5 499.4 354.5 587.5 354.5 587.5L351.9 587.7L316.2 591.1C311.2 587.5 306.2 583.9 301.2 580.2C289.8 571.9 278.5 563.5 267.2 555.1Z" fill="#2B358A"/>
<path d="M147.9 465.5C136.4 456.8 124.8 448.1 113.3 439.3C110.4 437.1 107.6 435.1 104.9 432.8C102 430.3 99.1 427.7 96.2 425.2C87 417 77.7 409 68.5 400.9C105.4 389 142.1 391 175.4 399.8L161.2 475.5C156.8 472.2 152.4 468.8 147.9 465.5Z" fill="#2B358A"/>
<path d="M249.5 541.9C242.4 536.6 235.2 531.2 228.1 525.9C214.5 515.7 200.9 505.5 187.3 495.2C179.3 489.2 171.3 483.2 163.4 477.1L177.8 400.4C211.3 409.6 241.3 425.6 264.3 440.8C265.8 441.8 267.3 442.9 268.8 443.9L250.5 541.7L249.5 541.9Z" fill="#2B358A"/>
<path d="M68.4 486.3L161.1 478.5C172.7 487.3 184.3 496 196 504.8C209.6 515.1 223.3 525.3 236.9 535.6C239.9 537.8 242.9 540.1 245.9 542.3L115.8 553.3C96.7 536.2 78.9 514.2 68.4 486.3Z" fill="#2B358A"/>
<path d="M99.7 431.4C106.1 437 112.9 442 119.7 447.1C131.8 456.2 143.8 465.4 155.9 474.5C156.7 475.1 157.4 475.7 158.2 476.2L67.5 483.9C66.4 480.7 65.3 477.5 64.3 474.1C64.2 473.8 64.1 473.5 64.1 473.2C58.6 453.3 56.7 430.7 60.4 405.2C60.5 404.6 60.5 404 60.6 403.5C61.5 403.2 62.5 402.8 63.4 402.5C64.2 402.2 65 402 65.9 401.7C68.5 403.9 71 406.2 73.6 408.4C82.2 416.1 90.9 423.8 99.7 431.4Z" fill="#2B358A"/>
<path d="M275 564C285.7 572 296.5 579.9 307.3 587.8C309 589.1 310.7 590.3 312.5 591.5L200 602.1C200 602.1 173.2 593.8 143 574C143 574 143 574 142.9 574C141.6 573.1 140.2 572.2 138.9 571.3C132.1 566.7 125.2 561.4 118.4 555.6L248.9 544.6C257.6 550.9 266.3 557.5 275 564Z" fill="#2B358A"/>
<path d="M341 608.2C341 608.2 340.9 608.1 341 608.2Z" fill="#BFD42F"/>
<path d="M163.4 477.4V477.2C171.4 483.2 179.3 489.3 187.3 495.3C200.9 505.5 214.5 515.8 228.1 526C235.2 531.3 242.4 536.7 249.5 542L245.8 542.3C242.8 540.1 239.8 537.8 236.8 535.6C223.1 525.4 209.5 515.1 195.9 504.8C184.3 496 172.7 487.3 161 478.5L163.1 478.3L163.4 477.4Z" fill="#BFD42F"/>
<path d="M275 564C266.2 557.5 257.5 551 248.8 544.4L252.4 544.1C257.3 547.8 262.2 551.5 267.1 555.1C278.4 563.5 289.7 571.9 301.1 580.2C306.1 583.8 311.1 587.5 316.1 591.1L312.4 591.4C310.7 590.2 309 588.9 307.2 587.7C296.5 579.9 285.8 571.9 275 564Z" fill="#BFD42F"/>
<path d="M104.9 432.8C107.6 435.1 110.4 437.2 113.3 439.3C124.8 448 136.4 456.8 147.9 465.5C152.3 468.9 156.8 472.2 161.2 475.6L161.1 476.1L158.1 476.4C157.3 475.8 156.6 475.2 155.8 474.7C143.7 465.6 131.7 456.5 119.6 447.3C112.8 442.2 106 437.2 99.6 431.6C90.9 424 82.1 416.3 73.4 408.7C70.8 406.5 68.3 404.2 65.7 402C66.6 401.7 67.5 401.4 68.4 401.1C77.7 409 87 417 96.2 425.1C99.1 427.7 102 430.2 104.9 432.8Z" fill="#BFD42F"/>
<path d="M252.5 544.1C251.5 543.4 250.5 542.6 249.5 541.9L250.4 541.8L268.7 444C269.4 444.5 270.2 445 270.9 445.5L252.6 543.2L252.5 544.1Z" fill="#BFD42F"/>
<path d="M248.8 544.4L118.3 555.4C117.4 554.7 116.6 553.9 115.7 553.2L245.8 542.2C246.9 543 247.8 543.7 248.8 544.4Z" fill="#BFD42F"/>
<path d="M252.5 544.1L248.9 544.4C247.9 543.7 246.9 542.9 245.9 542.2L249.6 541.9C250.5 542.6 251.5 543.4 252.5 544.1Z" fill="#BFD42F"/>
<path d="M161.2 475.5L175.4 399.8C176.2 400 177 400.2 177.8 400.5L163.4 477.2C162.7 476.6 162 476.1 161.2 475.5Z" fill="#BFD42F"/>
<path d="M161.1 478.5L68.4 486.3C68.1 485.5 67.8 484.7 67.5 483.9L158.2 476.2C159.2 477 160.1 477.7 161.1 478.5Z" fill="#BFD42F"/>
<path d="M161.1 476L161.2 475.5C161.9 476 162.7 476.6 163.4 477.1V477.3L163.2 478.2L161.1 478.4C160.1 477.7 159.2 476.9 158.2 476.2L161.1 476Z" fill="#BFD42F"/>
<path d="M237.4 418.3C235.8 413.9 234.3 409.5 232.7 405.1L233.2 404.6L286 350.6C310.3 416.1 278.8 475.6 278.8 475.6L277 474.7L253 461.8C251.4 457.4 249.7 453 248.1 448.6C244.6 438.4 241 428.3 237.4 418.3Z" fill="#2B358A"/>
<path d="M199.9 311.2C196.3 300.8 192.7 290.4 189.1 280.1C188.2 277.5 187.2 275 186.5 272.4C185.7 269.6 185 266.7 184.2 263.9C181.8 254.9 179.4 245.9 176.9 236.9C205.2 245 227.6 261.7 244.9 281.4L204 323.3C202.7 319.2 201.3 315.2 199.9 311.2Z" fill="#2B358A"/>
<path d="M231.8 402.4C229.5 396 227.3 389.6 225 383.2C220.7 371 216.4 358.8 212.2 346.6C209.7 339.4 207.2 332.3 204.7 325.1L246.2 282.7C263.5 302.7 275.7 325.4 283.8 344.8C284.3 346.1 284.8 347.4 285.3 348.6L232.4 402.7L231.8 402.4Z" fill="#2B358A"/>
<path d="M140.8 290.8L202.7 325C206.3 335.4 210 345.9 213.6 356.3C217.9 368.5 222.2 380.8 226.5 393C227.4 395.7 228.4 398.3 229.3 401L142.5 353C137.6 334.3 135.8 312.9 140.8 290.8Z" fill="#2B358A"/>
<path d="M183.8 269.4C185.5 275.6 187.7 281.7 189.8 287.8C193.6 298.7 197.3 309.5 201.1 320.4C201.3 321.1 201.6 321.8 201.8 322.5L141.3 289C141.9 286.5 142.6 284 143.4 281.5C143.5 281.3 143.5 281.1 143.6 280.9C148.5 266 156.9 251 169.9 236.4C170.2 236.1 170.5 235.7 170.8 235.4C171.5 235.6 172.2 235.8 173 235.9C173.6 236.1 174.3 236.3 174.9 236.4C175.6 238.9 176.2 241.4 176.9 243.9C179.2 252.3 181.5 260.8 183.8 269.4Z" fill="#2B358A"/>
<path d="M238.6 427.1C242 436.7 245.5 446.2 249 455.7C249.6 457.2 250.1 458.7 250.7 460.2L175.2 419.4C175.2 419.4 161.8 402.9 151 377.6C151 377.6 151 377.6 151 377.5C150.5 376.4 150.1 375.2 149.6 374.1C147.3 368.3 145.1 362.1 143.3 355.5L230.4 403.6C233.1 411.5 235.8 419.3 238.6 427.1Z" fill="#2B358A"/>
<path d="M204.6 325.3L204.7 325.2C207.2 332.4 209.7 339.5 212.2 346.7C216.5 358.9 220.7 371.1 225 383.3C227.2 389.7 229.5 396.1 231.8 402.5L229.4 401.2C228.5 398.5 227.5 395.9 226.6 393.2C222.3 381 218 368.7 213.7 356.5C210.1 346.1 206.4 335.6 202.8 325.2L204.2 326L204.6 325.3Z" fill="#BFD42F"/>
<path d="M238.6 427.1C235.8 419.3 233.1 411.5 230.3 403.7L232.7 405C234.3 409.4 235.8 413.8 237.4 418.2C241 428.3 244.6 438.3 248.3 448.4C249.9 452.8 251.5 457.2 253.2 461.6L250.7 460.3C250.1 458.8 249.6 457.3 249 455.8C245.5 446.3 242 436.7 238.6 427.1Z" fill="#BFD42F"/>
<path d="M186.5 272.4C187.2 275 188.2 277.5 189.1 280.1C192.7 290.5 196.3 300.9 199.9 311.2C201.3 315.2 202.7 319.2 204.1 323.2L203.8 323.5L201.8 322.4C201.6 321.7 201.3 321 201.1 320.3C197.3 309.4 193.6 298.6 189.8 287.7C187.7 281.6 185.5 275.5 183.8 269.3C181.5 260.8 179.2 252.3 176.9 243.7C176.2 241.2 175.6 238.7 174.9 236.2C175.6 236.4 176.3 236.6 177 236.8C179.4 245.8 181.8 254.8 184.3 263.8C185 266.8 185.8 269.6 186.5 272.4Z" fill="#BFD42F"/>
<path d="M232.8 405.1C232.4 404.2 232.1 403.3 231.8 402.4L232.4 402.7L285.3 348.6C285.5 349.2 285.8 349.9 286 350.5L233.2 404.5L232.8 405.1Z" fill="#BFD42F"/>
<path d="M230.3 403.7L143.2 355.6C143 354.8 142.7 353.9 142.5 353.1L229.3 401.1C229.7 402 230 402.8 230.3 403.7Z" fill="#BFD42F"/>
<path d="M232.7 405.1L230.3 403.8C230 402.9 229.7 402 229.4 401.2L231.8 402.5C232.1 403.3 232.4 404.2 232.7 405.1Z" fill="#BFD42F"/>
<path d="M204.1 323.2L245 281.3C245.4 281.8 245.8 282.2 246.2 282.7L204.7 325.1C204.5 324.5 204.3 323.9 204.1 323.2Z" fill="#BFD42F"/>
<path d="M202.7 325L140.8 290.8C140.9 290.2 141.1 289.5 141.2 288.9L201.7 322.3C202.1 323.3 202.4 324.2 202.7 325Z" fill="#BFD42F"/>
<path d="M203.8 323.5L204.1 323.2C204.3 323.9 204.6 324.5 204.8 325.2L204.7 325.3L204.2 325.8L202.8 325C202.5 324.1 202.2 323.2 201.9 322.4L203.8 323.5Z" fill="#BFD42F"/>
<path d="M706.8 564C711.3 562.9 715.8 561.8 720.4 560.7L720.6 560L736.7 486.2C668.6 501.9 636.3 560.9 636.3 560.9L638.1 561.8L662.1 574.7C666.7 573.7 671.2 572.6 675.8 571.5C686 569 696.4 566.5 706.8 564Z" fill="#BFD42F"/>
<path d="M816.9 536.5C827.6 533.8 838.2 531.1 848.9 528.4C851.5 527.7 854.2 527.2 856.7 526.3C859.5 525.4 862.3 524.5 865.1 523.5L891.7 514.7C869.4 495.4 843.1 486 817.2 482.3L804.7 539.5C808.7 538.6 812.8 537.6 816.9 536.5Z" fill="#BFD42F"/>
<path d="M723.1 560C729.7 558.4 736.3 556.8 742.8 555.1C755.3 552 767.9 548.9 780.4 545.7C787.8 543.9 795.1 542 802.5 540.1L815.2 482.2C789 478.7 763.3 481 742.7 484.9C741.3 485.2 740 485.5 738.7 485.8L722.5 559.7L723.1 560Z" fill="#BFD42F"/>
<path d="M866.3 574.7L803.7 541.8C793 544.5 782.2 547.2 771.5 549.9C758.9 553 746.3 556.2 733.7 559.3C731 560 728.2 560.6 725.4 561.3L813.2 607.5C831.8 601.2 850.7 591 866.3 574.7Z" fill="#BFD42F"/>
<path d="M860.7 527C854.6 529 848.3 530.5 842 532.1C830.9 534.9 819.7 537.7 808.6 540.5C807.9 540.7 807.2 540.9 806.5 541L867.7 573.2C869.5 571.3 871.2 569.3 872.8 567.3C872.9 567.1 873.1 566.9 873.2 566.8C883 554.5 890.9 539.2 896 520.3C896.1 519.9 896.2 519.5 896.4 519C895.9 518.5 895.3 518 894.7 517.5C894.2 517.1 893.7 516.6 893.2 516.2C890.7 517 888.3 517.8 885.9 518.6C877.5 521.5 869.1 524.2 860.7 527Z" fill="#BFD42F"/>
<path d="M698.7 567.8C688.8 570.2 679 572.6 669.1 574.9C667.5 575.3 666 575.6 664.4 576L740 616.7C740 616.7 761.2 618.8 788.2 613.9C788.2 613.9 788.2 613.9 788.3 613.9C789.5 613.7 790.7 613.4 791.9 613.2C798 612 804.4 610.3 810.9 608.2L722.9 561.8C714.8 563.9 706.8 565.9 698.7 567.8Z" fill="#BFD42F"/>
<path d="M802.5 540.3V540.1C795.1 542 787.8 543.8 780.4 545.7C767.9 548.8 755.3 552 742.8 555.1C736.2 556.7 729.6 558.3 723.1 560L725.6 561.3C728.4 560.6 731.1 560 733.9 559.3C746.5 556.2 759.1 553 771.7 549.9C782.4 547.2 793.2 544.5 803.9 541.8L802.5 541.1V540.3Z" fill="#2B358A"/>
<path d="M698.7 567.8C706.7 565.8 714.8 563.9 722.8 561.9L720.3 560.6C715.8 561.7 711.3 562.8 706.7 563.9C696.3 566.4 685.9 569 675.5 571.4C670.9 572.5 666.4 573.5 661.8 574.6L664.3 575.9C665.9 575.5 667.4 575.2 669 574.8C679 572.6 688.9 570.2 698.7 567.8Z" fill="#2B358A"/>
<path d="M856.6 526.4C854 527.2 851.4 527.8 848.8 528.5C838.1 531.2 827.5 533.9 816.8 536.6C812.7 537.6 808.6 538.7 804.5 539.7L804.4 540.1L806.4 541.2C807.1 541 807.8 540.8 808.5 540.7C819.6 537.9 830.8 535.1 841.9 532.3C848.2 530.7 854.4 529.2 860.6 527.2C869 524.4 877.4 521.7 885.7 518.9C888.2 518.1 890.6 517.3 893 516.5C892.5 516 891.9 515.5 891.4 515.1L864.8 523.9C862.2 524.5 859.4 525.5 856.6 526.4Z" fill="#2B358A"/>
<path d="M720.4 560.6C721.3 560.4 722.3 560.2 723.2 560L722.6 559.7L738.7 485.8C738 485.9 737.4 486.1 736.7 486.2L720.6 560L720.4 560.6Z" fill="#2B358A"/>
<path d="M722.9 561.9L810.9 608.3C811.7 608 812.5 607.8 813.4 607.5L725.6 561.3C724.7 561.5 723.8 561.7 722.9 561.9Z" fill="#2B358A"/>
<path d="M720.4 560.6L722.9 561.9C723.8 561.7 724.7 561.5 725.6 561.2L723.1 559.9C722.2 560.2 721.3 560.4 720.4 560.6Z" fill="#BFD42F"/>
<path d="M804.6 539.6L817.1 482.4C816.5 482.3 815.9 482.2 815.3 482.2L802.6 540.1C803.2 540 803.9 539.8 804.6 539.6Z" fill="#2B358A"/>
<path d="M803.8 541.7L866.4 574.6C866.8 574.1 867.3 573.7 867.7 573.2L806.5 541C805.6 541.3 804.7 541.5 803.8 541.7Z" fill="#2B358A"/>
<path d="M804.5 540L804.6 539.6C803.9 539.8 803.3 539.9 802.6 540.1V540.3L802.4 541L803.8 541.7C804.7 541.5 805.6 541.2 806.5 541L804.5 540Z" fill="#BFD42F"/>
<path d="M738.4 461.3C741.1 457.5 743.8 453.7 746.5 449.9L746.2 449.3L710.3 382.9C668.8 439.2 682.8 505 682.8 505L684.7 504.6L711.3 498.7C714.1 494.9 716.8 491.1 719.6 487.3C725.9 478.7 732.2 470 738.4 461.3Z" fill="#BFD42F"/>
<path d="M803.9 368.7C810.2 359.7 816.5 350.7 822.8 341.7C824.4 339.5 826 337.3 827.4 335C828.9 332.5 830.4 330 831.9 327.4C836.7 319.4 841.5 311.4 846.3 303.4C816.8 303.4 790.7 313.4 768.7 327.5L796.5 379C799 375.7 801.4 372.2 803.9 368.7Z" fill="#BFD42F"/>
<path d="M748.1 447.6C752 442.1 756 436.6 759.9 431C767.4 420.5 774.8 409.9 782.3 399.3C786.7 393.1 791 386.9 795.4 380.7L767.2 328.5C745.1 343 727.1 361.5 714 377.9C713.1 379 712.3 380.1 711.5 381.2L747.5 447.7L748.1 447.6Z" fill="#BFD42F"/>
<path d="M866.2 365.4L797.3 381.2C790.9 390.2 784.6 399.3 778.2 408.3C770.7 418.9 763.2 429.5 755.7 440.1C754.1 442.4 752.4 444.7 750.8 447L847.5 424.8C857.4 408 865.1 388 866.2 365.4Z" fill="#BFD42F"/>
<path d="M830.9 332.9C827.6 338.4 823.8 343.6 820.1 348.9C813.5 358.3 806.9 367.7 800.3 377.1C799.9 377.7 799.5 378.3 799 378.9L866.4 363.4C866.5 360.8 866.5 358.2 866.4 355.6C866.4 355.4 866.4 355.1 866.4 354.9C865.8 339.2 861.9 322.5 853.3 304.8C853.1 304.4 852.9 304 852.7 303.6C851.9 303.6 851.2 303.6 850.5 303.5C849.8 303.5 849.2 303.5 848.5 303.5C847.2 305.7 845.8 307.9 844.5 310.1C840 317.8 835.4 325.3 830.9 332.9Z" fill="#BFD42F"/>
<path d="M734.8 469.5C728.9 477.7 723 486 717 494.2C716 495.5 715.1 496.8 714.1 498.1L797.9 479.7C797.9 479.7 815.3 467.5 832.6 446.1C833.4 445.2 834.1 444.2 834.9 443.2C838.7 438.3 842.5 432.9 846.1 427L749.1 449.3C744.4 456 739.6 462.8 734.8 469.5Z" fill="#BFD42F"/>
<path d="M795.4 380.9L795.3 380.8C790.9 387 786.6 393.2 782.2 399.4C774.8 410 767.3 420.5 759.8 431.1C755.9 436.6 751.9 442.1 748 447.7L750.7 447.1C752.3 444.8 754 442.5 755.6 440.2C763.1 429.6 770.6 419 778.1 408.4C784.5 399.4 790.8 390.3 797.2 381.3L795.6 381.7L795.4 380.9Z" fill="#2B358A"/>
<path d="M734.8 469.5C739.6 462.8 744.4 456 749.2 449.3L746.5 449.9C743.8 453.7 741.1 457.5 738.4 461.3C732.2 470 725.9 478.7 719.7 487.4C716.9 491.2 714.2 495 711.4 498.8L714.1 498.2C715.1 496.9 716 495.6 717 494.3C722.9 486 728.8 477.8 734.8 469.5Z" fill="#2B358A"/>
<path d="M827.4 335.1C826 337.4 824.4 339.5 822.8 341.8C816.5 350.8 810.2 359.8 803.9 368.8C801.5 372.3 799 375.7 796.6 379.2L796.8 379.5L799 379C799.4 378.4 799.8 377.8 800.3 377.2C806.9 367.8 813.5 358.4 820.1 349C823.8 343.7 827.6 338.5 830.9 333C835.4 325.4 840 317.9 844.5 310.3C845.8 308.1 847.2 305.9 848.5 303.7C847.8 303.7 847.1 303.7 846.4 303.7C841.6 311.7 836.8 319.7 832 327.7C830.4 330.1 828.9 332.6 827.4 335.1Z" fill="#2B358A"/>
<path d="M746.4 449.9C747 449.1 747.5 448.4 748.1 447.6L747.4 447.8L711.4 381.3C711 381.8 710.6 382.4 710.2 382.9L746.1 449.3L746.4 449.9Z" fill="#2B358A"/>
<path d="M749.2 449.3L846.2 427C846.7 426.3 847.1 425.5 847.5 424.8L750.8 447C750.3 447.8 749.7 448.5 749.2 449.3Z" fill="#2B358A"/>
<path d="M746.5 449.9L749.2 449.3C749.7 448.5 750.3 447.8 750.8 447L748.1 447.6C747.6 448.4 747 449.2 746.5 449.9Z" fill="#BFD42F"/>
<path d="M796.6 379.1L768.8 327.6C768.3 327.9 767.8 328.3 767.2 328.6L795.4 380.8C795.8 380.2 796.2 379.7 796.6 379.1Z" fill="#2B358A"/>
<path d="M797.3 381.2L866.2 365.4C866.2 364.8 866.3 364.1 866.3 363.5L798.9 379C798.4 379.7 797.9 380.5 797.3 381.2Z" fill="#2B358A"/>
<path d="M796.7 379.4L796.5 379.1C796.1 379.7 795.7 380.2 795.3 380.8L795.4 380.9L795.7 381.5L797.3 381.1C797.8 380.3 798.4 379.6 798.9 378.8L796.7 379.4Z" fill="#BFD42F"/>
<path d="M237 6.29999H445.4C457.8 6.29999 467.9 16.4 467.9 28.8V102.8C460.2 95.1 449.2 90.8 437.2 92C419.6 93.8 405.4 107.9 403.4 125.4C400.8 148.3 418.7 167.7 441.1 167.7C451.5 167.7 461 163.5 467.9 156.7V259.8H364.4C373.9 267.7 379.5 280 377.9 293.6C375.9 310.9 361.9 324.8 344.5 326.7C321.6 329.2 302.2 311.4 302.2 289C302.2 277.2 307.6 266.7 316 259.8H237C224.6 259.8 214.5 249.7 214.5 237.3V28.9C214.4 16.4 224.5 6.29999 237 6.29999Z" fill="#BFD42F"/>
<path d="M470.9 173.9C482.7 172.6 493.5 176.7 501.2 184V107.5C501.2 95.1 511.3 85 523.7 85H732.1C744.5 85 754.6 95.1 754.6 107.5V338.4H655.1C663.7 330.9 668.9 319.6 668 307.2C666.7 289.2 652.5 274.4 634.6 272.4C611.8 269.9 592.5 287.7 592.5 309.9C592.5 321.3 597.6 331.5 605.5 338.4H501.3V239.4C494.5 245.8 485.4 249.7 475.4 249.7C453 249.7 435.1 230.3 437.7 207.4C439.5 189.9 453.6 175.9 470.9 173.9Z" fill="#122894"/>
<path d="M637.6 327.8C638.9 339.6 634.8 350.4 627.5 358.1H726.5V589C726.5 601.4 716.4 611.5 704 611.5H495.7C483.3 611.5 473.2 601.4 473.2 589V512C480.7 520.6 492 525.8 504.4 524.9C522.4 523.6 537.2 509.4 539.2 491.5C541.7 468.7 523.9 449.4 501.7 449.4C490.3 449.4 480.1 454.5 473.2 462.4V358.2H572.2C565.8 351.4 561.9 342.3 561.9 332.3C561.9 309.9 581.3 292 604.2 294.6C621.6 296.4 635.6 310.5 637.6 327.8Z" fill="#04BCE4"/>
<path d="M814.2 309.5L815.4 313.7L833.8 310.4L828.7 299.5C823.5 305.4 817 308.4 814.2 309.5Z" fill="#F7A083"/>
<path d="M828.7 299.4L824.8 291L809.1 298.5L814.2 309.5C817 308.4 823.5 305.4 828.7 299.4Z" fill="#EF8A72"/>
<path d="M823.9 273.9L822.7 276.7C821.7 275.9 820.8 275 820 274C815.1 268.5 811.6 260.3 811.6 260.3C799.9 273.3 785.4 275.6 785.4 275.6C789.8 282.5 795.4 299.6 805.1 304.9C808 306.5 811.1 307.5 814.9 306.3C831.3 301 827.7 284.1 827.7 284.1C827.7 284.1 833.1 282.9 830.5 275.4C828.3 269.2 823.9 273.9 823.9 273.9Z" fill="#F7A083"/>
<path d="M810.7 264C810.7 264 815.3 270.1 819.2 273.2C814.7 267.9 811.5 260.3 811.5 260.3C799.8 273.3 785.3 275.6 785.3 275.6C785.8 276.3 786.3 277.2 786.8 278.2C792.9 276.1 803.4 271.7 810.7 264Z" fill="#EF8A72"/>
<path d="M800.6 280.2C801.3 281.5 801 282.9 800 283.3C799 283.7 797.6 283 797 281.7C796.3 280.4 796.6 279 797.6 278.6C798.6 278.1 799.9 278.9 800.6 280.2Z" fill="#0F1838"/>
<path d="M813.7 273C814.4 274.3 814.1 275.7 813.1 276.1C812.1 276.5 810.7 275.8 810.1 274.5C809.4 273.2 809.7 271.8 810.7 271.4C811.7 271 813 271.7 813.7 273Z" fill="#0F1838"/>
<path d="M812.9 273.5C810.3 274.2 807.5 275.5 807.5 275.5L807.1 274.1C807.2 274.1 809.7 272.9 812.3 272.4L812.9 273.5Z" fill="#B1613A"/>
<path d="M793.5 282.7C795.7 281.1 798.4 279.8 798.4 279.8L797.5 278.6C797.4 278.7 795 279.9 792.9 281.6L793.5 282.7Z" fill="#B1613A"/>
<path d="M825.6 282.9C826.2 287.3 826.1 299.1 815.4 303.8C809.6 306.3 804.9 304.1 801.7 302.4C802.8 303.4 803.9 304.2 805.1 304.9C808 306.5 811.1 307.5 814.9 306.3C831.3 301 827.7 284.1 827.7 284.1C827.7 284.1 831.9 283.3 831.1 277.8C830.6 283.9 825.6 282.9 825.6 282.9Z" fill="#EF8A72"/>
<path d="M816.7 278.8C816.7 278.8 808.5 285.3 799 287.8C799 287.8 804.5 294.9 811.8 291.1C818.7 287.6 817.4 280.3 816.7 278.8Z" fill="#A42460"/>
<path d="M809.5 287.1C803.8 290 801 288.5 799.6 287.5C806.9 285.4 811.8 281.9 816.2 279C816.5 280.8 814.9 284.4 809.5 287.1Z" fill="white"/>
<path d="M784.9 276.9C786.3 285.4 792.3 291.9 794.3 293.1C794.1 291 793.7 288.9 793.1 286.8C793 286.5 792.9 286.2 792.8 285.9C791.6 282.3 789.9 278.7 788.1 275.6C797.2 273.9 804.3 270.6 811.6 264.7C812.8 267.8 821.6 276 822.9 277.2C823.1 275.4 823.2 273.6 823.1 271.8C823.1 271.5 823.1 271.3 823.1 271C822.8 266.4 821.6 262.1 819.4 258.2C818.5 256.5 817.3 254.8 815.3 254C813.4 253.2 810.5 253.4 808.7 255C806.1 252.5 801.2 252.8 796.7 253.6C773.9 257.7 770.6 278.9 784.9 276.9Z" fill="#B1613A"/>
<path d="M806.1 283.7C805.8 284 805.3 284.2 804.8 284.3C804 284.4 803.2 284.1 802.7 283.5C802.2 282.9 802 282 802.3 281.3C802.6 280.6 803.5 280.1 804.2 280.3" fill="#EF8A72"/>
<path d="M827.1 275.4C826.9 275.9 826.6 276.4 826.3 276.8C826.2 277 826 277.3 825.9 277.5C825.9 277.5 825.9 277.6 825.8 277.6C825.8 277.7 825.7 277.7 825.7 277.8C825.6 277.9 825.5 278 825.4 278.1C825.2 278.3 825.2 278.7 825.4 278.9C825.6 279.1 826 279.1 826.2 278.9C826.9 278 827.5 277 828.1 275.9C828.2 275.6 828.1 275.3 827.9 275.2C827.5 275 827.2 275.1 827.1 275.4Z" fill="#EF8A72"/>
<path d="M822.3 312.6C822.3 312.6 797.5 335.2 781.8 345.6C769 354.1 742.3 360.8 733 363C730.9 363.5 728.6 363.2 726.8 362L726.2 361.7V373.5C740.9 372.2 769.1 368.9 789.2 361.6C817.4 351.4 846.6 329.5 846.6 329.5L822.3 312.6Z" fill="#EF9C82"/>
<path d="M732.3 353.5C729.8 354.2 738.5 382.2 738.5 382.2C738.5 382.2 846 353.5 856.6 324L829.5 298.6C829.5 298.6 798.2 335.1 732.3 353.5Z" fill="#283473"/>
<path d="M897.3 587.1C897.3 587.1 897.9 600.7 871.1 610.2C865.6 612.2 867.5 613.7 866.6 616.1C875.6 615.7 898 614.5 898 614.5L909.6 600.1L913.6 603.2L922 594.1C922 594.1 917.2 581.7 910.5 581.9C905 584 897.3 587.1 897.3 587.1Z" fill="black"/>
<path d="M891.5 579.6L897.2 591.1C901.9 592.2 906.8 590.4 909.8 586.6L910.3 585.9L905.6 574L891.5 579.6Z" fill="#F2B28B"/>
<path d="M839.1 293.9C882.4 286.9 926.4 366.4 926.4 366.4L875.7 406C875.7 406 816.3 356.8 823.2 310.4C824.4 302.1 830.9 295.3 839.1 293.9Z" fill="#293986"/>
<path d="M939.1 591C939.1 591 929.6 600.7 907.3 607.6C902.4 609.1 896.9 607.7 897.3 615.9C907.9 615.4 947.6 613.4 947.6 613.4L959.9 612.8C959.9 612.8 962.3 592.4 955 590.2C948.4 590.6 939.1 591 939.1 591Z" fill="black"/>
<path d="M940.6 580.5L938.9 595.1C943.6 598 949.5 597.9 954 594.8L954.8 594.3L952.8 579.9L940.6 580.5Z" fill="#F2B28B"/>
<path d="M875.7 406C875.7 406 849.5 459.8 854.7 487.3C859.9 514.8 891.2 592.8 891.2 592.8L922.8 584.7C922.8 584.7 909.8 526.9 899 500.5C896.5 494.3 894.8 487.7 897.5 481.5C909.3 453.9 923.5 408.6 923.5 408.6L895.9 390.4L875.7 406Z" fill="#283473"/>
<path d="M887.7 396.7L934.7 592.1L957.3 591C957.3 591 962.7 533.9 951.3 495.1C949.6 489.3 949 483.3 949.3 477.3C951.7 419.7 946.6 384.9 926.5 366.5L887.7 396.7Z" fill="#294697"/>
<path d="M827.8 333C827.8 333 805.4 358 790.8 369.9C778.9 379.6 753.1 389 744 392.1C741.9 392.8 739.7 392.7 737.7 391.8L728.8 387.7C728.8 387.7 718.3 390.8 719 394.3C721.1 397.7 723.2 400.1 725 401.9C727.1 403.9 730 404.8 732.8 404.3C744.4 402.3 777.7 395.8 799.7 385.2C826.7 372.2 853.6 347.5 853.6 347.5L827.8 333Z" fill="#F2B28B"/>
<path d="M815.3 308.9C815.5 310 820.1 327.5 820.1 327.5C820.1 327.5 826 318.4 826.1 318.2C826.2 318.1 826.8 302.9 826.8 302.9L815.3 308.9Z" fill="white"/>
<path d="M814.8 306.9L809 315.2L816.9 319.2L810.3 324C810.3 324 825.7 333.9 823.5 332.6C821.4 331.4 814.8 306.9 814.8 306.9Z" fill="#35509E"/>
<path d="M830 297.9L834.1 306.1L828.4 311.6L834.6 315C834.6 315 823.3 328.6 823.4 326.1C823.5 315.6 830 297.9 830 297.9Z" fill="#35509E"/>
<path d="M817.9 309.9C818.3 310.4 819.6 312.9 819.6 312.9C819.6 312.9 820.4 384.1 820.6 384.4C820.8 384.7 832.4 397.5 832.4 397.5L835.5 379L822.1 312.8L824.3 307.8L820.9 305.1L817.9 309.9Z" fill="#F7CD0D"/>
<path d="M814.5 306.1C814.3 306.7 816.3 312.3 816.3 312.3L820.6 306.6L825.8 311.9L830.1 297.9C827.6 300.7 817.7 306.2 814.5 306.1Z" fill="#DBDADA"/>
<path d="M742.7 382.2C740.3 383.3 744.5 410.1 744.5 410.1C744.5 410.1 859.2 363.7 865.2 332.9L832.3 308.8C832.2 308.8 805 353.9 742.7 382.2Z" fill="#293986"/>
<path d="M782.4 270.9C782.8 270 783.3 269.1 783.8 268.3C783.9 268.1 784.1 267.9 784.2 267.7C784.3 267.6 784.4 267.5 784.4 267.3C784.3 267.4 784.4 267.3 784.4 267.2C784.7 266.8 785 266.4 785.3 266C785.6 265.7 785.9 265.3 786.2 265C786.3 264.9 786.4 264.8 786.4 264.8C786.4 264.8 786.7 264.5 786.6 264.7C786.5 264.8 786.8 264.6 786.8 264.6C786.9 264.5 787 264.5 787.1 264.4C787.5 264.1 787.8 263.9 788.2 263.7C788.3 263.6 788.4 263.6 788.5 263.5C788.5 263.5 788.8 263.3 788.7 263.4C788.5 263.5 788.9 263.3 788.9 263.3C789 263.2 789.1 263.2 789.3 263.1C790 262.8 790.5 262 790.2 261.3C789.9 260.6 789.1 260.1 788.4 260.4C784.3 262 781.7 265.7 779.8 269.6C779.5 270.3 779.7 271.2 780.4 271.6C781.1 271.9 782 271.7 782.4 270.9Z" fill="#F7A083"/>
<path d="M793 260.5C794.9 260.4 794.7 257.5 792.9 257.6C791 257.7 791.1 260.6 793 260.5Z" fill="#F7A083"/>
<path d="M299.7 355.1C289.5 362.8 283.2 375.4 284.6 389.5C286.4 407.2 300.6 421.5 318.2 423.5C341.2 426 360.7 408.1 360.7 385.6C360.7 373.1 354.7 362.1 345.4 355.1H427.6C440 355.1 450.1 365.2 450.1 377.6V454.4C458 447.6 468.7 443.9 480.2 445.4C497.5 447.6 511.2 461.7 513.2 479C515.8 502.2 497.8 521.8 475.1 521.8C465.5 521.8 456.8 518.3 450.1 512.5V586.1C450.1 598.5 440 608.6 427.6 608.6H219.1C206.7 608.6 196.6 598.5 196.6 586.1V377.6C196.6 365.2 206.7 355.1 219.1 355.1H299.7Z" fill="#F7CD0D"/>
<path d="M317.4 401.6C317.4 401.6 313.7 404.7 314.4 408.6C315.1 412.5 316 421.8 316 421.8H319.8L319.7 413.2C319.7 412.6 327.8 421.8 329.1 421.8H349C349 421.8 350.3 416 338.7 414.1C326.9 412.3 317.4 401.6 317.4 401.6Z" fill="black"/>
<path d="M288.7 399L288.2 407.2C288.1 408.9 288.6 410.6 289.6 412.1C290.7 413.7 292.5 415.8 295.6 418.3C289.8 420.2 284.6 413.7 281.9 409.4C280.6 407.3 280 404.8 280.4 402.3L281.4 395.8L288.7 399Z" fill="#F29E84"/>
<path d="M280.3 399.5C280.3 399.5 275.2 400 274.4 403.8C273.6 407.7 271.2 415.5 271.2 415.5L274 417.7L277.9 410C277.9 410 286.3 421.3 287.6 421.9H309.3C309.3 421.9 309.3 414.7 295.7 414.4C283.2 414 280.3 399.5 280.3 399.5Z" fill="black"/>
<path d="M366.8 22.3L342.7 85.2L327.5 73.9L361.4 16.7L366.8 22.3Z" fill="#F29E84"/>
<path d="M363.8 3.20002C362.3 5.10002 361.5 7.40002 361.6 9.80002L360.5 18.9L361.7 20.3L366 24.1C365.8 22.2 365.6 24.1 365.6 24.1L372.5 12.2C372.5 12.2 380.8 6.90002 370.3 -0.99998C369.3 -1.79998 367.9 -1.89998 366.9 -1.19998C364.3 0.600023 363.8 3.20002 363.8 3.20002Z" fill="#F29E84"/>
<path d="M313.7 126.6C331 103.4 342.8 81.1 342.8 81.1L329.7 66.2L313.7 84.9V126.6Z" fill="#F09A1F"/>
<path d="M280.2 404.3L290.8 418.2C285.6 394.1 320.4 353.7 322.3 330.3C324.5 304.3 323.4 272.7 323.4 272.7L297.7 265.1C297.7 265.1 291.2 265.1 298.3 318.1C282.4 339.1 278.1 386.8 280.2 404.3Z" fill="#F29E84"/>
<path d="M299.1 245.7C299.1 245.7 305.1 282 313.5 320.7C304.7 344.1 318.1 409.5 318.3 409.2C319.3 408.3 337.9 420.6 337.9 420.6C337.9 420.6 318.8 405.6 339.9 334.7C347.4 309.7 341.4 249.7 341.4 249.7L299.1 245.7Z" fill="#F5B48D"/>
<path d="M392.1 19.2L368 82.2L352.8 70.9L386.7 13.7L392.1 19.2Z" fill="#F5B48D"/>
<path d="M389.1 0.200009C387.6 2.10001 386.8 4.40001 386.9 6.80001L385.8 15.9L387 17.3L391.3 21.1C391.2 19.2 390.9 21.1 390.9 21.1L397.8 9.20001C397.8 9.20001 406.1 3.90001 395.6 -3.99999C394.6 -4.69999 393.2 -4.89999 392.2 -4.19999C389.6 -2.39999 389.1 0.200009 389.1 0.200009Z" fill="#F5B48D"/>
<path d="M350.4 113.2C350.3 112.7 350.2 112.4 350.1 111.9C368.7 92.1 376.5 72.9 376.5 72.9L356.9 60.1L332.8 91.4H322.3C322.3 91.4 308.1 83.6 295.6 94.2C291.1 98.1 288 108.6 291.1 119.7C299.5 150.3 292.9 166.5 292.9 166.5L341.3 181.4C341.3 181.4 342.4 154.8 343.2 136.1C343.2 136.1 343.2 136.1 343.2 136C343.3 132.4 344.8 128.9 347.1 125.8C349.7 122.4 351.4 118 350.4 113.2Z" fill="#F7CD0D"/>
<path d="M342.8 165.7L352.9 276.2C352.9 276.2 298.3 276.5 290.9 276.5C289.1 230.7 278.6 229.3 278.6 208C278.6 198.7 283.4 188.2 287 181.5C289.6 176.7 291.3 173.3 292.3 166.7L292.5 165.8L342.8 165.7Z" fill="#2B358A"/>
<path d="M325.8 96.6H308.5L315.4 76.3L328.9 84.6L325.8 96.6Z" fill="#F29E84"/>
<path d="M331.8 39.9L303.5 49.8L306.3 70.9C306.3 71.2 306.4 71.5 306.5 71.8C307 71.9 307.6 72 308.1 72.1C308.2 72.1 308.3 72.2 308.4 72.2C308.5 72.2 308.6 72.2 308.7 72.3C315.2 73.9 319.8 79.3 321.9 85.5C325.9 86.2 330.1 86.2 334.1 85.3C336.9 84.7 339.4 83.9 340.5 82.5C346.5 69.5 331.8 39.9 331.8 39.9Z" fill="#F5B48D"/>
<path d="M290.7 102.7C291.8 103.2 330.6 101.1 332 101.4C319.6 83 317 53 321 46.7C324 42 329.4 41.2 334 38.6C331 27.8 306.9 27 296.8 37.3C287.2 47.2 287.7 65.5 288.7 71.6C290.7 83.9 292.2 92.3 290.7 102.7Z" fill="#DD347E"/>
<path d="M332.06 50.2831L327.074 51.3567L327.432 53.0186L332.418 51.9451L332.06 50.2831Z" fill="#2B358A"/>
<path d="M332.1 55.6C332.3 56.8 331.6 57.9 330.5 58.1C329.4 58.3 328.3 57.4 328.1 56.2C327.9 55 328.6 53.9 329.7 53.7C330.8 53.6 331.9 54.4 332.1 55.6Z" fill="#111939"/>
<path d="M336.4 63.4C337 63.3 337.7 62.9 338.1 62.5C338.9 61.8 339.3 60.8 339.2 59.9C339.1 59 338.4 58.3 337.4 58.2C336.4 58.1 335.2 58.6 334.7 59.5" fill="#EF8C72"/>
<path d="M341.5 63.4C335.6 64.9 330.5 64.9 330.5 64.9C330.9 66.4 334.2 72.4 341.2 70.9C341.5 70.8 341.9 70.7 342.2 70.6C342.5 68.4 341.8 65.8 341.5 63.4Z" fill="#A52560"/>
<path d="M341.5 63.4C337.6 64.3 334.1 64.6 330.9 64.9C331.7 66.2 335 67.9 340.5 66.7C341 66.6 341.5 66.5 342 66.3C341.8 65.4 341.6 64.4 341.5 63.4Z" fill="white"/>
<path d="M178.5 726.8L279 414.6H273.2L172.8 726.8H178.5Z" fill="#293986"/>
<path d="M230.5 726.8L330.9 414.6H325.2L224.7 726.8H230.5Z" fill="#293986"/>
<path d="M247.2 495.7V500.4L301 500.3L301.9 495.7H247.2Z" fill="#293986"/>
<path d="M258.4 465.5V470.1H312.2L313.1 465.4L258.4 465.5Z" fill="#293986"/>
<path d="M267.5 435.2V439.9L321.4 439.8L322.3 435.2H267.5Z" fill="#293986"/>
<path d="M237.4 526.3V531H291.2L292.1 526.3H237.4Z" fill="#293986"/>
<path d="M228.2 557V561.6H282L283 557H228.2Z" fill="#293986"/>
<path d="M218.7 588.8L216.5 593.5L270.3 593.4L271.3 588.8H218.7Z" fill="#293986"/>
<path d="M208.6 620.6L206.5 625.3H260.3L261.2 620.6H208.6Z" fill="#293986"/>
<path d="M199.2 651.8L197 656.4H250.8L251.7 651.7L199.2 651.8Z" fill="#293986"/>
<path d="M191.4 683.6L189.2 688.2H243L243.9 683.5L191.4 683.6Z" fill="#293986"/>
<path d="M428.8 726.8L328.4 414.6H334.1L434.6 726.8H428.8Z" fill="#293986"/>
<path d="M376.9 726.8L276.5 414.6H282.2L382.6 726.8H376.9Z" fill="#293986"/>
<path d="M360.2 495.7V500.4L306.4 500.3L305.4 495.7H360.2Z" fill="#293986"/>
<path d="M349 465.5V470.1H295.2L294.3 465.4L349 465.5Z" fill="#293986"/>
<path d="M339.8 435.2V439.9L286 439.8L285.1 435.2H339.8Z" fill="#293986"/>
<path d="M370 526.3V531H316.2L315.2 526.3H370Z" fill="#293986"/>
<path d="M379.2 557V561.6H325.4L324.4 557H379.2Z" fill="#293986"/>
<path d="M388.7 588.8L390.8 593.5L337 593.4L336.1 588.8H388.7Z" fill="#293986"/>
<path d="M398.8 620.6L400.9 625.3H347.1L346.2 620.6H398.8Z" fill="#293986"/>
<path d="M408.2 651.8L410.4 656.4H356.6L355.7 651.7L408.2 651.8Z" fill="#293986"/>
<path d="M416 683.6L418.2 688.2H364.4L363.5 683.5L416 683.6Z" fill="#293986"/>
<path d="M634.8 727.9H579.2V731.2H634.8V727.9Z" fill="black"/>
<path d="M699.3 727.9H666.3V731.2H699.3V727.9Z" fill="black"/>
<path d="M611 708.9H631.8C631.8 708.9 633.7 713.8 634.2 717.7C634.7 721.5 634 725.8 633.2 727.6H581.2C581.2 727.6 579.7 723.2 585.9 721.1C599.1 716.8 605.8 711.5 611 708.9Z" fill="#122894"/>
<path d="M687.4 708.9H668.9C668.9 708.9 667.7 714 666.9 717.2C666.3 719.5 666.1 723 666.3 727.7H698.6C698.6 727.7 699.6 724 696.3 721.9C689.2 717.4 688.3 712.4 687.4 708.9Z" fill="#122894"/>
<path d="M631.9 605.9C630.5 595.8 629.3 587 629.5 576.8C630.1 556.1 632 535.7 635.8 515.6L592.8 518.6C592.9 520.1 594.8 564.6 597.6 586.8C602.3 624.3 608.3 659.6 608.8 710C618.6 709.1 622.1 716.4 632.7 712.4C633.1 708.9 634.1 682.6 634.3 679.1C635.3 660.5 635.8 654.4 635.3 635.1C635.1 625.6 633.4 616.2 631.9 605.9Z" fill="#41E2F6"/>
<path d="M680.5 630C679 616.9 675.8 604.2 674.1 591.1C671.3 569.2 671.6 539.8 671.1 515.6H624.9C627.1 526.8 629.6 538 632.7 548.9C636.2 561.3 640 573.7 643 586.3C646 599.1 647.5 611.9 649.7 624.8C654 650.1 659.3 671.4 664.4 695.4C665.5 700.6 667 708.4 667.7 714.5C675 711.7 681.8 711.4 688.7 712.8C686 694.1 684.1 671.4 683.3 660.1C682.4 648.9 681.9 642.4 680.5 630Z" fill="#41E2F6"/>
<path d="M620.1 377.5C620.1 378.5 619.4 405.1 619.4 405.1L646.3 405.8L647.1 376.8L620.1 377.5Z" fill="#FAA284"/>
<path d="M679 397.6C665.2 392.8 655.9 388.7 645.6 387C645.6 387.8 645.5 388.6 645.3 389.4C643.4 397.2 637.2 403.6 628.9 404C625.7 404.2 622.2 403.2 619.6 401.4C616.1 398.9 614.1 396 612.4 392.3C607.6 394.4 603.1 396.4 599.1 397.7C595.6 398.8 593.3 401.4 592.1 404.6C591.2 406.7 591.7 408 589.6 415C585 430.2 578.1 434 579.4 445.3C580.9 457.8 592.2 459.6 594.7 459.6C596.4 479.9 593.1 522.1 593 533.5C593 534.3 596.9 534 597.7 534H677C677.8 534 678.5 533.3 678.5 532.5C678.1 521.2 673.9 512.8 673.8 503.5C673.6 477.8 683.4 446.9 688.2 430.8C691.7 418.7 692.8 402.4 679 397.6Z" fill="#5C7ACC"/>
<path d="M617.7 419.6C617.7 419.6 615.8 424.4 612.9 431.5C610.1 438.7 606.4 448.2 602.6 457.8C595.4 477 588.1 496.2 588.1 496.2C585.3 503.5 577.2 507.2 569.9 504.4C562.7 501.7 559 493.8 561.5 486.6L574.9 447.8C578.1 438.1 581.4 428.3 583.8 421C586.2 413.7 587.7 408.8 587.7 408.8V408.7C590.4 400.3 599.4 395.7 607.7 398.4C616.1 401.1 620.7 410.1 618 418.4C618 418.8 617.8 419.2 617.7 419.6Z" fill="#5C7ACC"/>
<path d="M678.1 540.3H592.9V533.5L678.1 533.6V540.3Z" fill="#3F61AA"/>
<path d="M644.1 383.3C644.1 389.3 642.6 402.1 624 402.1C626.3 406.3 629.4 413 629.4 413C639 408.8 647.9 403.5 648.4 389.4C646.1 385.8 644.1 383.3 644.1 383.3Z" fill="#EDEEEF"/>
<path d="M624 402.1C624 402.1 618.9 401.5 618.9 395V388.3C618.9 388.3 611.4 395.3 613.8 410.6C618.9 406.4 624 402.1 624 402.1Z" fill="#EDEEEF"/>
<path d="M603.3 459.6C607 461.4 612.8 464.8 626.8 465C641.6 465.2 648.1 457.1 649.4 450.9C643.3 456.3 638.7 459.5 624.4 459.6C615.1 459.7 609.2 459.6 603.3 459.6Z" fill="#3F61AA"/>
<path d="M619.5 479.9C617.4 467 613.2 435.2 611.5 422.2C610.8 417.1 612.6 413.3 619.1 413.6C623.3 413.8 624.4 419.5 625.4 422.9C627.5 429.7 629.8 436.5 632.1 443.3C634.5 450.3 637.1 457.3 639.6 464.3C641 468.3 643.4 472.6 643.8 476.8C645.3 492.2 622 495.1 619.5 479.9Z" fill="#FAA284"/>
<path d="M583.6 485C599.8 488 616.1 490.2 632.5 491.9C637 492.4 644.4 492.2 643.8 498.9C643.3 504.7 636.7 504.4 632.4 504.7C615.7 506.2 598.4 508.2 581.6 507.5C565.3 506.8 567.9 481.9 583.6 485Z" fill="#FAA284"/>
<path d="M697.673 477.908L611.988 509.443L632.92 566.316L718.605 534.781L697.673 477.908Z" fill="#E0E0E0"/>
<path d="M714.9 542.6C714.9 542.6 699.8 542.2 686.1 546.9C676.9 550.1 632.8 566.3 632.8 566.3L612 509.4C612 509.4 659.7 491.9 667.6 489C680.6 484.3 697.1 483.9 697.1 483.9L714.9 542.6Z" fill="white"/>
<path d="M624 491.2C624 491.2 621.5 498.9 622 505.4C629.6 505.3 627.6 509.6 639.1 513C642.1 513.9 646.5 514.3 658.3 517.8C661.1 518.6 661.3 516.2 659.4 515.2C656.4 513.7 653.8 512.7 652.5 512.1C657.9 513.9 665.9 516.1 667.4 516C668.8 515.9 669.5 515.4 670 513.8C671.1 513.8 672.6 513.9 673.1 512.6C673.9 510.8 673.1 510.1 672.7 509.5C673.9 508 673.4 506.5 671.4 505.3C663.3 500.3 655.9 497.2 649.5 495.6C644.5 494.3 633.9 491.1 624 491.2Z" fill="#FAA284"/>
<path d="M680.8 399.3C674.8 397.6 668.2 399.6 664.2 404.4C660.8 408.4 660 414.1 658.6 418.9C654.1 433.8 648.8 448.7 641.8 462.6C640.9 460.6 639.9 458 639 456C630.6 457.6 622 459.6 617 462.2C617.8 468.8 623.7 499 629.3 503.5C632.9 506.5 650.1 501.6 656.8 493.2C668.6 478.2 676.4 459.6 683.4 441.9C688.2 429.6 701.2 405.1 680.8 399.3Z" fill="#5C7ACC"/>
<path d="M624.4 408.7C625.3 401 623.6 398.7 620.6 396C619.3 394.8 616.9 394.4 614.7 388.1C614 386.1 612.1 386.9 611.8 388.9C611.2 392.6 613.8 397.3 616.7 401.9C619.5 406.4 624.4 408.7 624.4 408.7Z" fill="#EF8D72"/>
<path d="M638.9 406.7C638.9 406.7 602.8 381.6 602 381.1C600.5 380.1 598.7 379 598.7 379C598.7 379 598 379.8 597.3 381C596.7 382 596 383.3 596 383.3C596 383.3 597.5 384.4 599.1 385.4C600.1 386 636 411 636 411C636 411 637.1 411.4 638.3 409.5C639.4 407.5 638.9 406.7 638.9 406.7Z" fill="#231F20"/>
<path d="M612.8 393.9C610.6 386.7 610.4 385.2 607.9 385.7C606.2 386 606.3 387.4 606.3 388.4C606.3 389.4 606.6 391.3 606.7 394C606.7 394.5 606.3 394.9 603.4 392.8C602.8 393 602.1 393.6 601.9 395.2C601.7 396.4 601.9 397.3 602.3 398.8C600.8 401.3 601.4 404 602.6 405.4C602.9 410.1 603.3 411.4 605.9 414.7C608.5 418.1 610.8 418.9 611.3 421.8C612 426.3 612.6 430.8 612.6 430.8L625.3 424.8C622.9 412.8 624.7 411.2 624.4 407.4L617.3 402.4C617.3 402.3 614.6 399.8 612.8 393.9Z" fill="#FAA284"/>
<path d="M636.6 320.4C638.1 312.7 646.9 309 654.7 309.4C697.8 311.9 680.4 389.8 680 390.3C679.5 391 634.8 388.1 634.7 387.4C632.8 371.5 646 353 643.1 337.2" fill="#DD4382"/>
<path d="M652.6 324.8C655.8 323.7 659.1 323.7 662.3 324.8C662.7 325 663.3 324.7 663.4 324.2C663.5 323.7 663.3 323.3 662.8 323.1C659.4 321.9 655.5 321.9 652.1 323.1C651.7 323.3 651.3 323.7 651.4 324.2C651.6 324.5 652.1 324.9 652.6 324.8Z" fill="#C43B79"/>
<path d="M647.9 320.8C648.3 320 648.8 319.3 649.3 318.6C649.4 318.5 649.4 318.5 649.5 318.4C649.4 318.5 649.6 318.3 649.6 318.2C649.7 318 649.9 317.9 650 317.7C650.3 317.4 650.6 317.1 650.9 316.8C651.2 316.5 651.6 316.2 651.9 316C652 315.9 652 315.9 652.1 315.8C652 315.9 652.2 315.7 652.3 315.7C652.5 315.6 652.6 315.5 652.8 315.4C653.5 314.9 654.3 314.5 655.1 314.2C655.5 314 655.7 313.4 655.5 313C655.2 312.6 654.7 312.5 654.3 312.6C651 314 648.1 316.6 646.4 319.8C646.2 320.2 646.2 320.8 646.7 321C647 321.4 647.6 321.3 647.9 320.8Z" fill="#C43B79"/>
<path d="M647.5 369.8C648 370.4 648.1 371.2 647.9 372.2C656.6 362 661.8 348.8 659.5 335.8C659.2 334.9 658.8 334 658.5 333.1C655.4 325.1 649.7 318.4 641.1 316.2C636.4 315 631.5 315.5 626.8 316.5C622.5 317.4 618.2 318.9 614.4 321.2C599.7 330.2 601.8 354.3 616.1 362.8C626 368.7 617.4 362.2 626.9 367.2C630 365.6 645.1 367.1 647.5 369.8Z" fill="#EF4A8A"/>
<path d="M650.9 361L648.1 363.2C647.6 361.8 647.1 360.4 646.8 358.9C644.8 350.5 645.8 340 645.8 340C626.4 346.9 610.1 341.1 610.1 341.1C610.8 350.7 607 371.6 614.1 382.6C616.2 385.9 618.9 388.6 623.5 389.5C643.5 393.2 649.2 373.6 649.2 373.6C649.2 373.6 655.5 375.4 657 366.2C658.2 358.6 650.9 361 650.9 361Z" fill="#FAA284"/>
<path d="M642.9 343.4C642.9 343.4 644.3 352.3 646.6 357.7C645 349.7 645.9 340 645.9 340C626.5 346.9 610.2 341.1 610.2 341.1C610.3 342.1 610.3 343.3 610.2 344.6C617.6 346 630.9 347.2 642.9 343.4Z" fill="#EF8D72"/>
<path d="M620.8 358.6C620.7 360.3 619.7 361.6 618.4 361.5C617.1 361.4 616.1 359.8 616.2 358.1C616.3 356.4 617.3 355.1 618.6 355.2C619.8 355.4 620.8 356.9 620.8 358.6Z" fill="#121A3A"/>
<path d="M638.4 358.6C638.3 360.3 637.3 361.6 636 361.5C634.7 361.4 633.7 359.8 633.8 358.1C633.9 356.4 634.9 355.1 636.2 355.2C637.4 355.3 638.4 356.8 638.4 358.6Z" fill="#121A3A"/>
<path d="M613.4 353.5L612.9 352.4C613.1 352.3 616.7 350.2 621.4 349.4L621.9 351.2C618 351.6 613.4 353.5 613.4 353.5Z" fill="#C6306D"/>
<path d="M640.8 354.9C638.2 352.7 632.8 350.6 632.7 350.5L633.6 349C633.8 349.1 638.7 351 641.4 354L640.8 354.9Z" fill="#C6306D"/>
<path d="M647.7 371.3C645.9 376.2 639.2 388.3 625.4 387.2C618 386.6 614.3 381.6 611.9 378.1C612.4 379.7 613.1 381.2 614 382.6C616.1 385.9 618.8 388.6 623.4 389.5C643.4 393.2 649.1 373.6 649.1 373.6C649.1 373.6 653.9 375.1 656.2 369C652.3 375.2 647.7 371.3 647.7 371.3Z" fill="#EF8D72"/>
<path d="M638.2 367.4C638.2 367.4 625.9 369.6 614.7 366.8C614.7 366.8 616.4 377.3 626.2 377.5C635.4 377.8 638.1 369.5 638.2 367.4Z" fill="#A52660"/>
<path d="M626.1 372.1C618.6 371.9 616.5 368.7 615.6 367C624.3 369 631.5 368.1 637.7 367.5C636.9 369.4 633.1 372.3 626.1 372.1Z" fill="white"/>
<path d="M628.6 365.5C628 365.7 627.3 365.6 626.8 365.4C625.8 365 625.1 364.2 624.8 363.2C624.5 362.2 624.9 361.1 625.7 360.4C626.5 359.8 627.7 359.7 628.5 360.4" fill="#EF8D72"/>
<path d="M614.7 336.3C616.7 332.5 620.5 330.4 624.7 330.2C627.5 330.1 626.9 325.8 624.2 325.9C618.4 326.2 613.5 329.5 610.7 334.6C609.5 337 613.5 338.7 614.7 336.3Z" fill="#FF92BE"/>
<path d="M630.4 328.2C633.1 327.9 632.6 323.6 629.9 324C627.2 324.3 627.7 328.6 630.4 328.2Z" fill="#FF92BE"/>
<path d="M649.7 368.1C649.8 368 649.8 367.9 649.9 367.8C649.9 367.8 650 367.7 650 367.6C650.1 367.5 649.8 367.8 650 367.6C650.2 367.4 650.3 367.2 650.5 367.1C650.7 366.9 650.9 366.8 651 366.6C651 366.6 651.2 366.4 651.1 366.5C651 366.6 651.2 366.5 651.2 366.4C651.3 366.3 651.4 366.3 651.5 366.2C651.7 366.1 651.9 366 652.1 365.9C652.2 365.8 652.3 365.8 652.4 365.7C652.4 365.7 652.4 365.7 652.5 365.7C652.6 365.7 652.5 365.7 652.4 365.7C652.4 365.7 652.5 365.7 652.5 365.6C653 365.4 653.5 365.3 654 365.3C654.5 365.2 654.9 364.6 654.7 364.1C654.5 363.5 654 363.3 653.5 363.4C651.2 363.7 649.1 365.1 647.8 367C647.5 367.4 647.7 368.1 648.1 368.4C648.8 368.7 649.4 368.6 649.7 368.1Z" fill="#EF8D72"/>
<path d="M534 546.8C525.5 492.6 519.4 438 516 383.3L510.4 377.8C525.8 382.5 533.8 399.2 538.9 414.4C553.1 457 558.7 501.8 562.3 546.8H534Z" fill="#D11971"/>
<path d="M562.7 556.9C562.7 556.9 570.2 591.2 564.7 595.8C559.2 600.4 562 586.2 561 582.3C560 578.4 561.5 595.9 556.3 595.9C551.1 595.9 555.4 585.9 553.4 579.3C553.4 579.3 556.2 596.6 551.1 595.9C546 595.2 546.6 579.2 546.6 579.2C546.6 579.2 543.8 593.8 540.7 592.8C537.5 591.8 540.9 580.2 540.2 576.7C539.4 573.2 537.3 551.8 537.3 551.8L562.7 556.9Z" fill="#FAA284"/>
<path d="M531.7 553.2C531.9 556.5 532.4 560.3 532.6 564.2C533.7 564.6 534.9 564.4 534.9 564.4C534.9 564.4 561 562.7 566.1 561.7C566.4 561.6 566.7 561.5 566.9 561.3C566.7 555.1 566.4 548.8 566 542.6C554.5 544.6 542.9 545.5 531.2 546.1C531.3 548.4 531.5 550.8 531.7 553.2Z" fill="#EA7AAD"/>
<path d="M433.1 682.5C433.1 682.5 424.3 694 425 706.6C425.7 719.1 449.3 735.8 447.6 739.7C446 743.6 419.5 736.3 415.4 729C411.2 721.7 394.9 709.4 399.7 699.3C404.5 689.2 408.1 695.6 410.7 681.1C413.5 666.6 433.1 682.5 433.1 682.5Z" fill="#FAA284"/>
<path d="M512.9 513.3L465.7 356C470.4 356 475.4 356.6 480.9 357C504.6 359 518.9 367.5 526.3 385C530 393.6 532.6 410.7 533.5 419.8C533.8 423.2 540.2 510.7 540.1 515.1L512.9 513.3Z" fill="#D11971"/>
<path d="M428.7 560.8C441.8 530.4 434.9 441.8 433.3 423.2C445.2 415.9 457 408.4 469.8 402.9C470.5 402.6 471 402.2 471.2 401.7L476.7 401.8C476.7 401.8 479.7 497.3 483.1 518.9C486.4 540.5 439.1 689.2 439.1 689.2C439.1 689.2 421.9 689.9 404.9 680.4C405 680.3 414.1 594.7 428.7 560.8Z" fill="#406BCC"/>
<path d="M409.2 435.6C409.3 431.9 410 428.2 410.2 425.3C411.1 416.2 413.1 407 416.8 398.3C424.2 380.8 439.3 365.5 462.8 362.3C468.3 361.6 473.3 361.2 478 361.3V435.6H409.2Z" fill="#D11971"/>
<path d="M449.9 318.6C452.3 310.6 460.2 303.9 469.2 302.7C472.6 302.2 476.3 302.9 478.7 305C481.1 307 479.8 313.1 479.3 313.9C477 317.7 475.2 321.6 472.6 325.3C470.4 328.4 468.1 331.9 464.6 334.9C463.6 335.8 463.1 337.1 463 338.7C462.6 338.7 462.2 338.6 461.8 338.6C461.5 338.6 461.2 338.6 461 338.8C460.9 338.9 457.3 338.2 456.7 338.3C455.4 338.4 453.9 338.9 452.6 338.7C449.9 338.3 449.6 335.7 449.4 333.6C449.1 328.7 448.4 323.4 449.9 318.6Z" fill="#121A3A"/>
<path d="M506.1 335.4C505.8 335.8 505.8 336.2 506 336.5C504.2 339.2 501.8 341.4 498.7 343.1C493.9 345.6 487.9 347.1 482.6 348.3C481.6 348.5 480.6 348.7 479.6 348.9L481.2 328.5V310L475.8 308.6C475.8 308.6 468.7 307.8 474.4 304.5C480.6 300.9 489.2 303.2 495.3 305.7C498.6 307 501.4 308.8 503.8 310.9C506.1 313.6 508 316.6 509.1 320C509.9 322.7 510.3 325.7 509.8 328.4C509.1 330.9 507.6 333.1 506.1 335.4Z" fill="#121A3A"/>
<path d="M492.1 351.9C492.1 352.8 496.2 373.9 496.2 373.9L481.7 375.4L459.3 373.7L463.6 350.8L492.1 351.9Z" fill="#FAA284"/>
<path d="M455.4 337.6L458.6 339.5C459.3 338.4 460.2 337.2 460.3 336C461.7 303.6 503.8 322 503.8 322C502.7 329.9 506.4 347.4 497.9 356.4C495.4 359.1 492.1 361.3 486.7 361.9C463.2 364.5 457.1 348.1 457.1 348.1C457.1 348.1 449.7 349.5 448.2 341.8C447 335.5 455.4 337.6 455.4 337.6Z" fill="#FAA284"/>
<path d="M458.9 346.3C460.9 350.4 468.4 360.7 484.4 360C493.1 359.7 497.5 355.6 500.4 352.7C499.7 354 498.9 355.3 497.8 356.4C495.3 359.1 492 361.3 486.6 361.9C463.1 364.5 457 348.1 457 348.1C457 348.1 451.4 349.2 448.9 344.1C453.4 349.4 458.9 346.3 458.9 346.3Z" fill="#EF8D72"/>
<path d="M478.2 340.2C478.2 340.2 487.6 341.7 496.3 340.2C496.3 340.2 494.8 346.5 487.2 346.5C480.2 346.5 478.3 341.5 478.2 340.2Z" fill="#A52660"/>
<path d="M487.5 343.3C493.3 343.3 495 341.4 495.7 340.4C488.9 341.5 483.4 340.8 478.7 340.4C479.2 341.4 482 343.3 487.5 343.3Z" fill="white"/>
<path d="M488.9 341.7C489.5 341.9 490.2 341.8 490.9 341.7C491.9 341.4 492.8 340.7 493.1 339.9C493.4 339.1 493.1 338.1 492.2 337.6C491.4 337.1 490 337 489.2 337.5" fill="#EF8D72"/>
<path d="M461.3 343.4C461.2 343.4 461.2 343.3 461.3 343.4C461.2 343.4 461.2 343.4 461.3 343.4C461.2 343.3 461.2 343.3 461.2 343.2C461.1 343.1 461 343 461 343C460.8 342.8 460.7 342.7 460.5 342.5C460.3 342.3 460.3 342.3 460 342.2C459.8 342.1 459.6 342 459.4 341.8C458.9 341.6 458.6 341.4 458.2 341.3C458 341.2 457.7 341.2 457.5 341.1C457.4 341.1 457.3 341 457.1 341C457 341 457 341 456.9 341C456.9 341 456.7 341 456.8 341C456.4 341 456 340.7 456 340.3C456 340 456.4 339.5 456.8 339.6C459.1 339.9 461.3 340.9 462.7 342.7C462.9 343 462.8 343.5 462.4 343.7C461.9 343.8 461.5 343.7 461.3 343.4Z" fill="#EF8D72"/>
<path d="M503 328.9H496.8V330.9H503V328.9Z" fill="#122894"/>
<path d="M482.5 327.9H476.3V329.9H482.5V327.9Z" fill="#122894"/>
<path d="M476.9 335.1C476.9 336.5 478 337.6 479.4 337.6C480.8 337.5 481.8 336.3 481.8 334.8C481.8 333.4 480.7 332.3 479.3 332.3C478 332.4 476.9 333.6 476.9 335.1Z" fill="#121A3A"/>
<path d="M499.1 342.1C499.1 344.9 501.5 347.1 504.5 347.1C507.5 347.1 509.9 344.9 509.9 342.1C509.9 339.3 507.5 337.1 504.5 337.1C501.5 337.2 499.1 339.4 499.1 342.1Z" fill="#FAA284"/>
<path d="M498 335.1C498 336.5 499.1 337.6 500.5 337.6C501.9 337.5 502.9 336.3 502.9 334.8C502.9 333.4 501.8 332.3 500.4 332.3C499.1 332.4 498 333.6 498 335.1Z" fill="#121A3A"/>
<path d="M464.2 309.1C466.4 308.5 472 304.6 481.8 306.6C490.6 308.3 504 315.9 504.2 315.7L504.6 315.8L504.7 327.9C504.7 327.9 463 327 463.1 325.7C463.2 324.5 462.4 315 462.2 312.8C462.6 311.5 463.4 310.3 464.2 309.1Z" fill="#121A3A"/>
<path d="M470.9 297.4C470.9 302.6 475.4 306.7 481 306.7C486.6 306.7 491.1 302.5 491.1 297.4C491.1 292.2 486.6 288.1 481 288.1C475.5 288.1 470.9 292.2 470.9 297.4Z" fill="#121A3A"/>
<path d="M400 695.2C401.2 692.8 402.2 691.3 403.2 690.3C406 698.3 410.9 709.5 420.6 717.3C426.8 722.4 431.7 721.2 434.7 719.4C441.3 726.9 448.7 733.4 447.8 735.7C446.2 739.6 419.7 732.3 415.6 725C411.5 717.6 395.1 705.3 400 695.2Z" fill="#0E2168"/>
<path d="M519.4 688.3C519.4 688.3 516.1 702.5 521.8 713.6C527.5 724.7 555.7 729.8 555.8 734.1C555.9 738.4 528.9 742.9 522.1 738C515.3 733.1 495.5 728.9 495.8 717.6C496.1 706.4 501.9 710.7 498.4 696.4C495.1 682.2 519.4 688.3 519.4 688.3Z" fill="#FAA284"/>
<path d="M496 713.7C496.1 711 496.5 709.2 497 707.8C502.8 713.9 511.8 722 523.8 725C531.5 726.9 535.5 723.9 537.5 720.9C546.6 724.9 556 727.7 556 730.1C556.1 734.4 529.1 738.9 522.3 734C515.6 729.1 495.7 724.9 496 713.7Z" fill="#0E2168"/>
<path d="M526.1 455.8L467.6 453.2L493.5 696.4C507.2 699.3 524.4 695.9 524.4 695.9L523.1 523.5L526.1 455.8Z" fill="#406BCC"/>
<path d="M415.3 423.5L417 458.3L415.7 530.1C415.7 530.1 469.7 533 477.8 529.8C485.2 526.8 478.7 463.1 476.3 423.5H415.3Z" fill="#D11971"/>
<path d="M504.3 423.5C503.3 468.9 502.9 519.1 505.7 523.7C510.8 532.2 544.2 525.3 544.2 525.3C544.2 525.3 538.9 455.8 533.9 415.3L504.3 423.5Z" fill="#D11971"/>
<path d="M499.8 371.4C495.7 371.1 489.3 377.3 481.6 376.9C472.7 376.4 462.3 369.3 456.6 370.7C457.7 376.5 469.1 409.8 479.5 428.9C479.5 428.9 498.9 385.1 499.8 371.4Z" fill="#FF92BE"/>
<path d="M494.3 358.1C494.3 358.1 492.5 367 481.9 370.4C481.9 370.4 462.6 367.3 461.6 357.2L451.5 364.5C451.5 364.5 457 379 471.8 383.8L481.6 372.7L494 382.4C494 382.4 506.2 371.5 505.5 364.2L494.3 358.1Z" fill="#FFCAE2"/>
<path d="M516.1 416.5C516.8 416.5 517.4 417 517.4 417.7V426C517.4 426.6 516.8 427.3 516.1 427.2C515.4 427.2 514.8 426.7 514.8 426V417.7C514.8 417.1 515.4 416.4 516.1 416.5Z" fill="#EA7AAD"/>
<path d="M436.1 415.8C436.8 415.8 437.4 416.3 437.4 417V425.3C437.4 425.9 436.8 426.6 436.1 426.5C435.4 426.5 434.8 426 434.8 425.3V417C434.8 416.4 435.4 415.8 436.1 415.8Z" fill="#EA7AAD"/>
<path d="M491.6 417.6C494.7 417.9 498 417 500.3 414.8C502.3 412.8 502.8 410 501.8 407.5C501.3 406.2 500.3 405.1 498.9 404.5C497.6 403.9 498.5 401.7 499.9 402.2C501.6 402.8 503.3 402.5 504.8 401.7C506.4 400.8 507.5 399.2 507.9 397.4C508.8 393.8 507.3 389.2 503.8 387.4C502.3 386.6 503.6 384.5 505.1 385.3C512.1 388.9 512.9 400.9 505.3 404.3C504.6 404.6 503.9 404.8 503.1 405C504.3 406.7 504.9 408.9 504.7 411C504.4 414.8 501.7 417.8 498.2 419.3C496.1 420.2 493.8 420.5 491.5 420.3C490.8 420.2 490.2 419.8 490.2 419.1C490.3 418.2 490.9 417.5 491.6 417.6Z" fill="#EA7AAD"/>
<path d="M453.1 385.1C454.6 384.3 455.9 386.5 454.4 387.2C450.9 389 449.5 393.7 450.3 397.2C450.7 399 451.8 400.5 453.4 401.5C454.9 402.4 456.6 402.6 458.3 402C459.7 401.5 460.6 403.7 459.3 404.3C456.8 405.5 455.7 408.1 455.9 410.7C456.2 413.5 458.4 415.7 461.1 416.7C462.8 417.4 464.7 417.6 466.5 417.4C467.2 417.3 467.8 418 467.8 418.6C467.8 419.3 467.2 419.8 466.5 419.8C462.6 420.1 458.5 418.9 455.8 416.1C453.3 413.5 452.5 409.6 453.9 406.3C454.2 405.7 454.5 405.1 454.9 404.5C452.6 404.1 450.5 402.7 449.1 400.9C446.7 397.6 446.9 393.1 448.5 389.6C449.6 387.9 451.1 386.1 453.1 385.1Z" fill="#EA7AAD"/>
<path d="M481.1 391.5C476.8 391.5 476.8 385 481.1 385C485.4 385 485.4 391.5 481.1 391.5Z" fill="#F95D95"/>
<path d="M481.1 400.4C485.4 400.4 485.4 406.9 481.1 406.9C476.7 406.8 476.7 400.4 481.1 400.4Z" fill="#F95D95"/>
<path d="M459 472.8L517 480.5L528.1 394L470.1 386.2L459 472.8Z" fill="#E8F3FC"/>
<path d="M486.9 388.5L507.5 391.2L506.6 397.8L486.1 395.1L486.9 388.5Z" fill="#38D9F4"/>
<path d="M480.7 433.9C473.1 437.2 441.5 441.8 441.5 441.8C444.7 423.6 447.3 388.5 447.3 388.5L446.5 373.4C446.5 373.8 437.6 379.8 436.7 380.7C433.5 383.7 430.6 387.1 428 390.7C423 397.8 418.2 395.5 414.9 403.7C408.1 420.5 405.4 450.5 409.3 468.4C409.6 469.8 410 471.3 410.9 472.4C415.2 477.6 429.6 474.3 435.1 473.4C444.5 471.8 453.6 469.1 462.7 466.4C464.2 466 487.6 458.4 487.6 458.4C484.3 450.4 480.7 433.9 480.7 433.9Z" fill="#D11971"/>
<path d="M494.6 435.4C494.6 435.4 521.1 422.1 526 425.6C530.9 429.2 518.7 429.8 515.8 431.5C512.8 433.1 526.8 428.2 527.9 432.5C529 436.8 519.9 435.3 515 438.4C515 438.4 528.6 432.5 529 436.8C529.5 441.1 516.3 444 516.3 444C516.3 444 528.8 443.2 528.7 446C528.6 448.8 518.4 448.4 515.7 449.8C513 451.2 496 457.4 496 457.4L494.6 435.4Z" fill="#FAA284"/>
<path d="M488.7 434C486 434.6 482.9 435.6 479.7 436.4C479.5 437.4 479.9 438.3 479.9 438.3C479.9 438.3 485.1 459.7 486.7 463.8C486.8 464 487 464.2 487.2 464.4C492.4 463.3 497.5 462.1 502.6 460.9C499.2 451.6 496.8 442.1 494.6 432.5C492.6 433 490.7 433.5 488.7 434Z" fill="#EA7AAD"/>
<path d="M428 450.3C428.8 449.6 429.7 449.1 430.6 448.5C431.6 447.9 432.5 447.4 433.5 446.8C435.5 445.7 437.5 444.7 439.5 443.8C440 443.6 440.1 442.8 439.9 442.3C439.6 441.8 439 441.7 438.5 441.9C436.4 442.8 434.3 443.9 432.3 445C431.3 445.5 430.4 446.1 429.4 446.7C428.4 447.3 427.4 447.9 426.5 448.7C425.6 449.7 427 451.2 428 450.3Z" fill="#EA7AAD"/>
<path d="M438.5 444.7C436.2 447.3 434 450.1 432.1 453C431.8 453.5 432 454.2 432.5 454.5C433 454.8 433.6 454.6 433.9 454.1C435.8 451.3 437.8 448.7 440 446.3C440.4 445.9 440.4 445.2 440 444.8C439.6 444.3 438.9 444.3 438.5 444.7Z" fill="#EA7AAD"/>
<path d="M441.6 424.7C440.4 431.3 439.4 437.8 438.5 444.5C438.3 445.8 440.3 446.4 440.5 445.1C441.4 438.5 442.5 431.9 443.6 425.3C443.9 423.9 441.9 423.3 441.6 424.7Z" fill="#EA7AAD"/>
</svg>
