<?xml version="1.0" standalone="no"?>
<!DOCTYPE svg PUBLIC "-//W3C//DTD SVG 20010904//EN"
 "http://www.w3.org/TR/2001/REC-SVG-20010904/DTD/svg10.dtd">
<svg version="1.0" xmlns="http://www.w3.org/2000/svg"
 width="512.000000pt" height="512.000000pt" viewBox="0 0 512.000000 512.000000"
 preserveAspectRatio="xMidYMid meet">

<g transform="translate(0.000000,512.000000) scale(0.100000,-0.100000)"
fill="#000000" stroke="none">
<path d="M2375 4793 c-921 -80 -1711 -724 -1963 -1603 -68 -235 -87 -373 -86
-635 0 -249 16 -372 78 -598 206 -746 807 -1347 1553 -1553 224 -61 349 -77
598 -78 242 -1 343 11 559 65 621 155 1161 592 1453 1174 90 178 171 439 209
670 27 164 25 505 -4 675 -85 500 -304 918 -659 1261 -369 356 -836 571 -1343
618 -107 10 -303 12 -395 4z m490 -337 c202 -36 347 -83 524 -167 399 -191
708 -500 901 -901 253 -528 253 -1132 -1 -1658 -461 -957 -1602 -1358 -2558
-899 -400 192 -709 501 -901 901 -84 176 -129 318 -167 528 -24 133 -24 467 0
600 38 210 83 352 167 528 122 254 284 463 495 640 291 244 638 394 1025 441
107 14 408 6 515 -13z"/>
<path d="M2495 3826 c-41 -18 -83 -69 -91 -111 -16 -89 -28 -75 449 -552 l441
-443 -956 -2 c-948 -3 -957 -3 -984 -24 -53 -39 -69 -71 -69 -134 0 -63 16
-95 69 -134 27 -21 36 -21 984 -24 l956 -2 -441 -443 c-478 -479 -465 -463
-448 -554 9 -49 69 -109 118 -118 93 -18 61 -44 709 603 527 528 598 601 603
635 17 93 43 62 -593 701 -337 338 -601 594 -619 602 -40 17 -89 17 -128 0z"/>
</g>
</svg>
