<svg xmlns:xlink="http://www.w3.org/1999/xlink" xmlns="http://www.w3.org/2000/svg" class="icon icon_lg" height="80" width="80" ><defs><symbol viewBox="0 0 80 80" id="security-data-list__icon-1"><circle cx="40" cy="40" r="40" fill="#25175C"></circle><path d="M27.2255 40.7769H29.0579V41.9986C28.6085 42.3097 28.0553 42.4941 27.5251 42.4941C26.1652 42.4941 25.0358 41.3301 25.0358 39.9356C25.0358 38.5526 26.1652 37.3886 27.5251 37.3886C28.2512 37.3886 29.0234 37.7344 29.4843 38.2761L30.7175 37.1697C29.9338 36.3399 28.7122 35.8443 27.5251 35.8443C25.2087 35.8443 23.284 37.6998 23.284 39.9356C23.284 42.183 25.2087 44.0384 27.5251 44.0384C28.7122 44.0384 29.9338 43.5429 30.7175 42.7131V39.4516H27.2255V40.7769ZM32.0721 43.9001H34.9072C37.5694 43.9001 39.4595 42.2521 39.4595 39.9356C39.4595 37.6191 37.5694 35.9826 34.9072 35.9826H32.0721V43.9001ZM33.7663 42.3558V37.5269H35.1262C36.6474 37.5269 37.7077 38.5296 37.7077 39.9356C37.7077 41.3532 36.6474 42.3558 35.1262 42.3558H33.7663ZM40.6932 43.9001H42.3873V41.3301H44.2543C45.9715 41.3301 47.2393 40.2237 47.2393 38.6564C47.2393 37.089 45.9715 35.9826 44.2543 35.9826H40.6932V43.9001ZM42.3873 39.7743V37.5385H44.0815C44.9113 37.5385 45.4875 37.9764 45.4875 38.6564C45.4875 39.3363 44.9113 39.7743 44.0815 39.7743H42.3873ZM54.9825 38.6564C54.9825 37.089 53.7147 35.9826 51.9976 35.9826H48.4364V43.9001H50.1305V41.3301H51.1562L52.9656 43.9001H54.9018L53.0002 41.1918C54.1873 40.8461 54.9825 39.901 54.9825 38.6564ZM50.1305 37.5385H51.8247C52.6545 37.5385 53.2307 37.9764 53.2307 38.6564C53.2307 39.3363 52.6545 39.7743 51.8247 39.7743H50.1305V37.5385Z" fill="white"></path><path d="M39.1714 8.05688L40.5256 12.2246L44.9078 12.2246L41.3625 14.8004L42.7167 18.9682L39.1714 16.3924L35.6261 18.9682L36.9803 14.8004L33.435 12.2246L37.8172 12.2246L39.1714 8.05688Z" fill="#F0B45B"></path><path d="M26.3986 11.6049L27.7527 15.7727H32.135L28.5897 18.3485L29.9439 22.5162L26.3986 19.9404L22.8533 22.5162L24.2074 18.3485L20.6621 15.7727H25.0444L26.3986 11.6049Z" fill="#F0B45B"></path><path d="M16.4641 20.8297L17.8183 24.9975H22.2005L18.6552 27.5733L20.0094 31.7411L16.4641 29.1652L12.9188 31.7411L14.273 27.5733L10.7277 24.9975H15.1099L16.4641 20.8297Z" fill="#F0B45B"></path><path d="M12.9161 34.3122L14.2703 38.4799H18.6525L15.1072 41.0558L16.4614 45.2235L12.9161 42.6477L9.3708 45.2235L10.725 41.0558L7.17969 38.4799H11.5619L12.9161 34.3122Z" fill="#F0B45B"></path><path d="M16.4641 47.0851L17.8183 51.2528H22.2005L18.6552 53.8286L20.0094 57.9964L16.4641 55.4206L12.9188 57.9964L14.273 53.8286L10.7277 51.2528H15.1099L16.4641 47.0851Z" fill="#F0B45B"></path><path d="M26.3986 56.3099L27.7527 60.4776H32.135L28.5897 63.0535L29.9439 67.2212L26.3986 64.6454L22.8533 67.2212L24.2074 63.0535L20.6621 60.4776H25.0444L26.3986 56.3099Z" fill="#F0B45B"></path><path d="M39.1714 59.8579L40.5256 64.0257H44.9078L41.3625 66.6015L42.7167 70.7692L39.1714 68.1934L35.6261 70.7692L36.9803 66.6015L33.435 64.0257H37.8172L39.1714 59.8579Z" fill="#F0B45B"></path><path d="M51.9443 56.3099L53.2985 60.4776H57.6807L54.1354 63.0535L55.4896 67.2212L51.9443 64.6454L48.399 67.2212L49.7532 63.0535L46.2079 60.4776H50.5901L51.9443 56.3099Z" fill="#F0B45B"></path><path d="M61.8787 47.0851L63.2329 51.2528H67.6151L64.0698 53.8286L65.424 57.9964L61.8787 55.4206L58.3334 57.9964L59.6876 53.8286L56.1423 51.2528H60.5245L61.8787 47.0851Z" fill="#F0B45B"></path><path d="M65.4267 33.6026L66.7809 37.7703H71.1632L67.6178 40.3462L68.972 44.5139L65.4267 41.9381L61.8814 44.5139L63.2356 40.3462L59.6903 37.7703H64.0725L65.4267 33.6026Z" fill="#F0B45B"></path><path d="M61.8787 20.8297L63.2329 24.9975H67.6151L64.0698 27.5733L65.424 31.7411L61.8787 29.1652L58.3334 31.7411L59.6876 27.5733L56.1423 24.9975H60.5245L61.8787 20.8297Z" fill="#F0B45B"></path><path d="M51.9443 11.6049L53.2985 15.7727H57.6807L54.1354 18.3485L55.4896 22.5162L51.9443 19.9404L48.399 22.5162L49.7532 18.3485L46.2079 15.7727H50.5901L51.9443 11.6049Z" fill="#F0B45B"></path></symbol></defs><use href="#security-data-list__icon-1" fill="#222B55"></use></svg>