<svg xmlns:xlink="http://www.w3.org/1999/xlink" xmlns="http://www.w3.org/2000/svg" width="100" height="100" viewBox="0 0 100 100"><g transform="translate(0 0)"><circle cx="50" cy="50" r="50" fill="#0067DA"></circle></g><g transform="translate(18.202 19.971)"><path d="M71.274,55.938A3.554,3.554,0,0,0,68.4,55.63c-1.824.632-3.13,2.839-5.042,6.956q-.3.656-.671,1.282a16.626,16.626,0,0,1-1.7-.138c-12.074-1.584-19.24-6.354-23.233-15.462C32.778,36.92,36.3,26.7,40.133,20.133a1.366,1.366,0,0,0-1.454-2.026,28.928,28.928,0,0,0-11.786,5.8C22.878,27.37,10.393,40.2,18.412,60c4.045,9.989,13.108,16.117,24.243,16.4.26.007.518.011.776.011,8.774,0,16.54-3.739,20.773-9.833a14.367,14.367,0,0,0,4.149-.879c2.858-1.082,5.025-3.618,5.155-6.03A3.831,3.831,0,0,0,71.274,55.938ZM42.724,73.662c-10.014-.251-18.156-5.743-21.78-14.691-7.337-18.108,4.066-29.832,7.734-32.994A24.841,24.841,0,0,1,36.21,21.7c-4.431,9.214-4.791,18.929-.96,27.668,4.36,9.948,12.426,15.373,25.378,17.075.059.007.116.015.175.021C56.751,71.062,49.979,73.86,42.724,73.662ZM67.384,63.138a11.055,11.055,0,0,1-1.48.441c.753-1.62,2.358-5.011,3.385-5.367a.408.408,0,0,1,.148-.025,1.4,1.4,0,0,1,.6.188,1.112,1.112,0,0,1,.74,1.14C70.718,60.663,69.4,62.373,67.384,63.138Z" transform="translate(-15.779 -17.07)" fill="#FFFFFF"></path><path d="M55.861,21.748a1.367,1.367,0,0,0,1.367-1.366V18.595a1.366,1.366,0,0,0-2.733,0v1.788A1.366,1.366,0,0,0,55.861,21.748Z" transform="translate(-8.512 -17.229)" fill="#FFFFFF"></path><path d="M52.711,23.075H54.5a1.366,1.366,0,1,0,0-2.732H52.711a1.366,1.366,0,1,0,0,2.732Z" transform="translate(-9.103 -16.644)" fill="#FFFFFF"></path><path d="M55.824,21.989a1.366,1.366,0,0,0-1.366,1.366v1.788a1.366,1.366,0,0,0,2.733,0V23.355A1.367,1.367,0,0,0,55.824,21.989Z" transform="translate(-8.519 -16.335)" fill="#FFFFFF"></path><path d="M56.1,21.746a1.367,1.367,0,0,0,1.367,1.366h1.788a1.366,1.366,0,1,0,0-2.732H57.471A1.367,1.367,0,0,0,56.1,21.746Z" transform="translate(-8.21 -16.637)" fill="#FFFFFF"></path><path d="M46.695,34.591a1.366,1.366,0,0,0,1.367-1.365V31.439a1.366,1.366,0,0,0-2.733,0v1.788A1.365,1.365,0,0,0,46.695,34.591Z" transform="translate(-10.232 -14.818)" fill="#FFFFFF"></path><path d="M43.544,35.918h1.788a1.365,1.365,0,1,0,0-2.731H43.544a1.365,1.365,0,1,0,0,2.731Z" transform="translate(-10.824 -14.233)" fill="#FFFFFF"></path><path d="M46.657,34.833A1.366,1.366,0,0,0,45.291,36.2v1.788a1.366,1.366,0,0,0,2.733,0V36.2A1.367,1.367,0,0,0,46.657,34.833Z" transform="translate(-10.239 -13.924)" fill="#FFFFFF"></path><path d="M46.937,34.59A1.367,1.367,0,0,0,48.3,35.956h1.788a1.366,1.366,0,1,0,0-2.732H48.3A1.367,1.367,0,0,0,46.937,34.59Z" transform="translate(-9.93 -14.226)" fill="#FFFFFF"></path><path d="M67.455,40.088a1.366,1.366,0,0,0,1.366-1.366V36.935a1.366,1.366,0,1,0-2.732,0v1.788A1.366,1.366,0,0,0,67.455,40.088Z" transform="translate(-6.335 -13.786)" fill="#FFFFFF"></path><path d="M67.458,40.049a1.366,1.366,0,0,0-1.367-1.366H64.305a1.365,1.365,0,1,0,0,2.731h1.786A1.366,1.366,0,0,0,67.458,40.049Z" transform="translate(-6.927 -13.202)" fill="#FFFFFF"></path><path d="M67.418,40.329a1.366,1.366,0,0,0-1.366,1.366v1.788a1.366,1.366,0,1,0,2.732,0V41.695A1.366,1.366,0,0,0,67.418,40.329Z" transform="translate(-6.342 -12.893)" fill="#FFFFFF"></path><path d="M70.851,38.72H69.064a1.366,1.366,0,1,0,0,2.732h1.788a1.366,1.366,0,1,0,0-2.732Z" transform="translate(-6.033 -13.195)" fill="#FFFFFF"></path></g></svg>