<svg xmlns:xlink="http://www.w3.org/1999/xlink" xmlns="http://www.w3.org/2000/svg" class="icon icon_lg" height="70" width="80" ><defs><symbol viewBox="0 0 80 70" id="security-data-list__icon-2"><path d="M60 0H20L2 34.64L20 69.28H60L78 34.64L60 0Z" fill="#287AC6"></path><rect x="29.3292" y="51.9647" width="1.87017" height="3.21502" rx="0.935086" stroke="white" stroke-width="0.819514"></rect><rect x="47.4845" y="51.9647" width="1.87017" height="3.21502" rx="0.935086" stroke="white" stroke-width="0.819514"></rect><rect x="35.3809" y="51.9647" width="1.87017" height="3.21502" rx="0.935086" stroke="white" stroke-width="0.819514"></rect><rect x="43.4498" y="51.9647" width="1.87017" height="3.21502" rx="0.935086" stroke="white" stroke-width="0.819514"></rect><line x1="33.3639" y1="51.9647" x2="33.3639" y2="55.1797" stroke="white" stroke-width="0.819514" stroke-linecap="round"></line><line x1="51.5191" y1="51.9647" x2="51.5191" y2="55.1797" stroke="white" stroke-width="0.819514" stroke-linecap="round"></line><line x1="39.4156" y1="51.9647" x2="39.4156" y2="55.1797" stroke="white" stroke-width="0.819514" stroke-linecap="round"></line><line x1="41.4327" y1="51.9647" x2="41.4327" y2="55.1797" stroke="white" stroke-width="0.819514" stroke-linecap="round"></line><path d="M27.195 47.8652H29.2475V35.8142H33.82V33.9039H22.6021V35.8142H27.195V47.8652ZM38.2847 45.9549V33.9039H36.2322V47.8652H45.682V45.9549H38.2847ZM52.9018 48.0888C56.194 48.0888 57.9823 46.3004 57.9823 43.943C57.9823 41.4434 56.0517 40.5086 53.2676 39.8583C50.9712 39.3096 49.7722 38.8625 49.7722 37.5619C49.7722 36.4441 50.8696 35.4484 52.4344 35.4484C53.8569 35.4484 55.2592 36.0783 56.4379 37.1554L57.6165 35.6109C56.2753 34.4322 54.6698 33.6397 52.5157 33.6397C49.7112 33.6397 47.679 35.4077 47.679 37.7448C47.679 40.2647 49.5689 41.1183 52.4141 41.7889C54.7511 42.3173 55.9095 42.8253 55.9095 44.1463C55.9095 45.264 54.9137 46.2801 52.9831 46.2801C51.0931 46.2801 49.6299 45.5079 48.3903 44.3292L47.1506 45.8533C48.6341 47.2759 50.5647 48.0888 52.9018 48.0888Z" fill="white"></path><path d="M42.3498 20.6869C43.0944 18.5391 42.7754 15.7061 40.9577 13.8681C38.5013 11.3847 34.5302 11.3736 32.0746 13.857C29.6182 16.3404 29.602 20.3837 32.058 22.8671C33.9305 24.7605 36.5894 25.3062 38.9663 24.2284L40.1437 25.419L40.188 25.4637L41.8451 25.1708L41.8378 26.9231L43.5598 26.9264L43.3439 28.6549L44.2004 29.521C44.2029 29.5234 44.2029 29.5234 44.2045 29.5251L44.2682 29.4611C44.5689 29.7372 44.4727 29.6112 44.5177 29.6112L47.4683 29.7015C47.7118 29.7015 47.9252 29.5197 47.9256 29.2732L47.8108 26.2646C47.8108 26.2187 47.9435 26.3245 47.6704 26.0201L47.6469 26.0443C47.6457 26.0426 47.6457 26.0431 47.6444 26.0414L42.3498 20.6869ZM35.5442 17.6217C34.91 18.263 33.8826 18.263 33.2489 17.6217C32.6151 16.9805 32.6147 15.942 33.2489 15.3008C33.883 14.6595 34.9104 14.6595 35.5442 15.3008C36.178 15.942 36.1784 16.9809 35.5442 17.6217Z" fill="white"></path></symbol></defs><use href="#security-data-list__icon-2" fill="#222B55"></use></svg>